<?xml version="1.0" encoding="UTF-8"?>
<!DOCTYPE svg PUBLIC "-//W3C//DTD SVG 1.1//EN" "http://www.w3.org/Graphics/SVG/1.1/DTD/svg11.dtd">
<svg width="180mm" height="114mm" viewBox="0 0 18000 11400" version="1.1" xmlns="http://www.w3.org/2000/svg" xmlns:xlink="http://www.w3.org/1999/xlink" stroke-width="28.222" stroke-linejoin="round" xml:space="preserve">
 <path fill="rgb(255,255,255)" stroke="none" d="M 9014,11356 L 0,11356 0,0 18027,0 18027,11356 9014,11356 Z"/>
 <path fill="none" stroke="rgb(179,179,179)" stroke-linejoin="round" d="M 9922,9501 L 2178,9501 2178,1568 17667,1568 17667,9501 9922,9501 Z"/>
 <path fill="none" stroke="rgb(221,221,221)" stroke-linejoin="round" d="M 2860,1567 L 2860,9500"/>
 <path fill="none" stroke="rgb(221,221,221)" stroke-linejoin="round" d="M 4225,1567 L 4225,9500"/>
 <path fill="none" stroke="rgb(221,221,221)" stroke-linejoin="round" d="M 5589,1567 L 5589,9500"/>
 <path fill="none" stroke="rgb(221,221,221)" stroke-linejoin="round" d="M 6954,1567 L 6954,9500"/>
 <path fill="none" stroke="rgb(221,221,221)" stroke-linejoin="round" d="M 8319,1567 L 8319,9500"/>
 <path fill="none" stroke="rgb(221,221,221)" stroke-linejoin="round" d="M 9683,1567 L 9683,9500"/>
 <path fill="none" stroke="rgb(221,221,221)" stroke-linejoin="round" d="M 11047,1567 L 11047,9500"/>
 <path fill="none" stroke="rgb(221,221,221)" stroke-linejoin="round" d="M 12412,1567 L 12412,9500"/>
 <path fill="none" stroke="rgb(221,221,221)" stroke-linejoin="round" d="M 13777,1567 L 13777,9500"/>
 <path fill="none" stroke="rgb(221,221,221)" stroke-linejoin="round" d="M 15142,1567 L 15142,9500"/>
 <path fill="none" stroke="rgb(221,221,221)" stroke-linejoin="round" d="M 16506,1567 L 16506,9500"/>
 <path fill="none" stroke="rgb(179,179,179)" stroke-linejoin="round" d="M 17667,9500 L 2178,9500"/>
 <path fill="none" stroke="rgb(179,179,179)" stroke-linejoin="round" d="M 17667,9103 L 2178,9103"/>
 <path fill="none" stroke="rgb(179,179,179)" stroke-linejoin="round" d="M 17667,8706 L 2178,8706"/>
 <path fill="none" stroke="rgb(179,179,179)" stroke-linejoin="round" d="M 17667,8309 L 2178,8309"/>
 <path fill="none" stroke="rgb(179,179,179)" stroke-linejoin="round" d="M 17667,7913 L 2178,7913"/>
 <path fill="none" stroke="rgb(179,179,179)" stroke-linejoin="round" d="M 17667,7516 L 2178,7516"/>
 <path fill="none" stroke="rgb(179,179,179)" stroke-linejoin="round" d="M 17667,7119 L 2178,7119"/>
 <path fill="none" stroke="rgb(179,179,179)" stroke-linejoin="round" d="M 17667,6723 L 2178,6723"/>
 <path fill="none" stroke="rgb(179,179,179)" stroke-linejoin="round" d="M 17667,6326 L 2178,6326"/>
 <path fill="none" stroke="rgb(179,179,179)" stroke-linejoin="round" d="M 17667,5929 L 2178,5929"/>
 <path fill="none" stroke="rgb(179,179,179)" stroke-linejoin="round" d="M 17667,5534 L 2178,5534"/>
 <path fill="none" stroke="rgb(179,179,179)" stroke-linejoin="round" d="M 17667,5137 L 2178,5137"/>
 <path fill="none" stroke="rgb(179,179,179)" stroke-linejoin="round" d="M 17667,4740 L 2178,4740"/>
 <path fill="none" stroke="rgb(179,179,179)" stroke-linejoin="round" d="M 17667,4343 L 2178,4343"/>
 <path fill="none" stroke="rgb(179,179,179)" stroke-linejoin="round" d="M 17667,3947 L 2178,3947"/>
 <path fill="none" stroke="rgb(179,179,179)" stroke-linejoin="round" d="M 17667,3550 L 2178,3550"/>
 <path fill="none" stroke="rgb(179,179,179)" stroke-linejoin="round" d="M 17667,3153 L 2178,3153"/>
 <path fill="none" stroke="rgb(179,179,179)" stroke-linejoin="round" d="M 17667,2757 L 2178,2757"/>
 <path fill="none" stroke="rgb(179,179,179)" stroke-linejoin="round" d="M 17667,2360 L 2178,2360"/>
 <path fill="none" stroke="rgb(179,179,179)" stroke-linejoin="round" d="M 17667,1963 L 2178,1963"/>
 <path fill="none" stroke="rgb(179,179,179)" stroke-linejoin="round" d="M 17667,1567 L 2178,1567"/>
 <path fill="none" stroke="rgb(179,179,179)" stroke-linejoin="round" d="M 2028,9500 L 2178,9500"/>
 <path fill="none" stroke="rgb(179,179,179)" stroke-linejoin="round" d="M 2028,9500 L 2178,9500"/>
 <path fill="none" stroke="rgb(179,179,179)" stroke-linejoin="round" d="M 2028,9103 L 2178,9103"/>
 <path fill="none" stroke="rgb(179,179,179)" stroke-linejoin="round" d="M 2028,9103 L 2178,9103"/>
 <path fill="none" stroke="rgb(179,179,179)" stroke-linejoin="round" d="M 2028,8706 L 2178,8706"/>
 <path fill="none" stroke="rgb(179,179,179)" stroke-linejoin="round" d="M 2028,8706 L 2178,8706"/>
 <path fill="none" stroke="rgb(179,179,179)" stroke-linejoin="round" d="M 2028,8309 L 2178,8309"/>
 <path fill="none" stroke="rgb(179,179,179)" stroke-linejoin="round" d="M 2028,8309 L 2178,8309"/>
 <path fill="none" stroke="rgb(179,179,179)" stroke-linejoin="round" d="M 2028,7913 L 2178,7913"/>
 <path fill="none" stroke="rgb(179,179,179)" stroke-linejoin="round" d="M 2028,7913 L 2178,7913"/>
 <path fill="none" stroke="rgb(179,179,179)" stroke-linejoin="round" d="M 2028,7516 L 2178,7516"/>
 <path fill="none" stroke="rgb(179,179,179)" stroke-linejoin="round" d="M 2028,7516 L 2178,7516"/>
 <path fill="none" stroke="rgb(179,179,179)" stroke-linejoin="round" d="M 2028,7119 L 2178,7119"/>
 <path fill="none" stroke="rgb(179,179,179)" stroke-linejoin="round" d="M 2028,7119 L 2178,7119"/>
 <path fill="none" stroke="rgb(179,179,179)" stroke-linejoin="round" d="M 2028,6723 L 2178,6723"/>
 <path fill="none" stroke="rgb(179,179,179)" stroke-linejoin="round" d="M 2028,6723 L 2178,6723"/>
 <path fill="none" stroke="rgb(179,179,179)" stroke-linejoin="round" d="M 2028,6326 L 2178,6326"/>
 <path fill="none" stroke="rgb(179,179,179)" stroke-linejoin="round" d="M 2028,6326 L 2178,6326"/>
 <path fill="none" stroke="rgb(179,179,179)" stroke-linejoin="round" d="M 2028,5929 L 2178,5929"/>
 <path fill="none" stroke="rgb(179,179,179)" stroke-linejoin="round" d="M 2028,5929 L 2178,5929"/>
 <path fill="none" stroke="rgb(179,179,179)" stroke-linejoin="round" d="M 2028,5534 L 2178,5534"/>
 <path fill="none" stroke="rgb(179,179,179)" stroke-linejoin="round" d="M 2028,5534 L 2178,5534"/>
 <path fill="none" stroke="rgb(179,179,179)" stroke-linejoin="round" d="M 2028,5137 L 2178,5137"/>
 <path fill="none" stroke="rgb(179,179,179)" stroke-linejoin="round" d="M 2028,5137 L 2178,5137"/>
 <path fill="none" stroke="rgb(179,179,179)" stroke-linejoin="round" d="M 2028,4740 L 2178,4740"/>
 <path fill="none" stroke="rgb(179,179,179)" stroke-linejoin="round" d="M 2028,4740 L 2178,4740"/>
 <path fill="none" stroke="rgb(179,179,179)" stroke-linejoin="round" d="M 2028,4343 L 2178,4343"/>
 <path fill="none" stroke="rgb(179,179,179)" stroke-linejoin="round" d="M 2028,4343 L 2178,4343"/>
 <path fill="none" stroke="rgb(179,179,179)" stroke-linejoin="round" d="M 2028,3947 L 2178,3947"/>
 <path fill="none" stroke="rgb(179,179,179)" stroke-linejoin="round" d="M 2028,3947 L 2178,3947"/>
 <path fill="none" stroke="rgb(179,179,179)" stroke-linejoin="round" d="M 2028,3550 L 2178,3550"/>
 <path fill="none" stroke="rgb(179,179,179)" stroke-linejoin="round" d="M 2028,3550 L 2178,3550"/>
 <path fill="none" stroke="rgb(179,179,179)" stroke-linejoin="round" d="M 2028,3153 L 2178,3153"/>
 <path fill="none" stroke="rgb(179,179,179)" stroke-linejoin="round" d="M 2028,3153 L 2178,3153"/>
 <path fill="none" stroke="rgb(179,179,179)" stroke-linejoin="round" d="M 2028,2757 L 2178,2757"/>
 <path fill="none" stroke="rgb(179,179,179)" stroke-linejoin="round" d="M 2028,2757 L 2178,2757"/>
 <path fill="none" stroke="rgb(179,179,179)" stroke-linejoin="round" d="M 2028,2360 L 2178,2360"/>
 <path fill="none" stroke="rgb(179,179,179)" stroke-linejoin="round" d="M 2028,2360 L 2178,2360"/>
 <path fill="none" stroke="rgb(179,179,179)" stroke-linejoin="round" d="M 2028,1963 L 2178,1963"/>
 <path fill="none" stroke="rgb(179,179,179)" stroke-linejoin="round" d="M 2028,1963 L 2178,1963"/>
 <path fill="none" stroke="rgb(179,179,179)" stroke-linejoin="round" d="M 2028,1567 L 2178,1567"/>
 <path fill="none" stroke="rgb(179,179,179)" stroke-linejoin="round" d="M 2028,1567 L 2178,1567"/>
 <path fill="none" stroke="rgb(179,179,179)" stroke-linejoin="round" d="M 2178,9500 L 2178,1567"/>
 <path fill="none" stroke="rgb(0,69,134)" stroke-width="80" stroke-linejoin="round" d="M 2178,4177 L 2181,4127 2184,4078 2188,4029 2191,3980 2195,3931 2198,3883 2201,3835 2205,3788 2208,3742 2212,3696 2215,3652 2218,3608 2222,3565 2225,3524 2229,3484 2232,3445 2236,3407 2239,3371 2242,3337 2246,3304 2249,3273 2253,3244 2256,3216 2259,3190 2263,3165 2266,3142 2270,3119 2273,3098 2276,3078 2280,3059 2283,3041 2287,3023 2290,3006 2294,2990 2297,2974 2300,2959 2304,2944 2307,2929 2311,2914 2314,2899 2317,2885 2321,2870 2324,2855 2328,2840 2331,2826 2334,2811 2338,2796 2341,2782 2345,2767 2348,2753 2352,2739 2355,2725 2358,2711 2362,2698 2365,2684 2369,2671 2372,2658 2375,2646 2379,2634 2382,2622 2386,2610 2389,2599 2392,2588 2396,2578 2399,2567 2403,2557 2406,2548 2410,2538 2413,2529 2416,2520 2420,2511 2423,2503 2427,2494 2430,2486 2433,2478 2437,2470 2440,2462 2444,2454 2447,2447 2450,2439 2454,2432 2457,2424 2461,2417 2464,2410 2468,2402 2471,2395 2474,2388 2478,2381 2481,2374 2485,2367 2488,2360 2491,2354 2495,2347 2498,2341 2502,2334 2505,2328 2508,2322 2512,2316 2515,2310 2519,2304 2522,2299 2526,2293 2532,2283 2536,2277 2539,2272 2543,2267 2546,2263 2549,2258 2553,2253 2556,2248 2560,2244 2563,2239 2566,2235 2570,2231 2577,2222 2580,2218 2584,2213 2590,2205 2594,2201 2597,2197 2604,2188 2607,2184 2611,2180 2614,2176 2618,2172 2621,2168 2628,2160 2631,2156 2638,2149 2642,2145 2648,2137 2652,2134 2659,2126 2662,2122 2665,2119 2669,2115 2672,2112 2676,2108 2679,2105 2682,2101 2686,2098 2689,2094 2693,2090 2696,2087 2703,2080 2706,2076 2710,2073 2713,2069 2717,2066 2720,2062 2723,2058 2727,2055 2730,2051 2734,2047 2737,2044 2740,2040 2744,2037 2747,2034 2751,2030 2758,2025 2764,2019 2775,2014 2785,2011 2792,2011 2802,2014 2805,2016 2809,2019 2812,2023 2816,2028 2819,2033 2822,2039 2826,2046 2829,2055 2833,2064 2836,2074 2839,2086 2843,2099 2846,2114 2850,2129 2853,2146 2856,2165 2860,2185 2863,2207 2867,2231 2870,2255 2873,2281 2877,2308 2880,2336 2884,2365 2887,2394 2890,2424 2894,2455 2897,2485 2901,2516 2904,2547 2907,2577 2911,2607 2914,2637 2918,2666 2921,2695 2925,2722 2928,2749 2932,2774 2935,2798 2939,2822 2942,2844 2946,2866 2949,2887 2952,2907 2956,2927 2959,2946 2963,2964 2966,2983 2970,3001 2973,3019 2977,3037 2980,3054 2983,3072 2987,3090 2990,3108 2993,3127 2996,3145 3000,3165 3003,3184 3006,3204 3009,3224 3012,3245 3015,3265 3019,3286 3022,3306 3025,3327 3028,3347 3031,3367 3035,3387 3038,3406 3042,3425 3045,3443 3049,3461 3053,3479 3057,3495 3061,3511 3065,3526 3069,3540 3073,3554 3077,3566 3082,3578 3087,3589 3091,3600 3096,3610 3101,3619 3105,3629 3110,3637 3115,3646 3120,3654 3124,3662 3129,3670 3134,3677 3138,3685 3143,3693 3147,3701 3151,3708 3156,3717 3160,3725 3164,3734 3167,3742 3171,3751 3175,3760 3178,3770 3182,3779 3185,3788 3189,3797 3192,3807 3195,3816 3198,3825 3202,3834 3205,3843 3208,3852 3211,3860 3214,3868 3217,3876 3221,3884 3224,3891 3227,3898 3230,3905 3234,3911 3237,3917 3240,3923 3244,3928 3247,3934 3250,3939 3254,3944 3257,3948 3261,3953 3264,3958 3271,3967 3275,3971 3278,3976 3282,3980 3289,3990 3292,3994 3296,3999 3299,4004 3302,4009 3306,4015 3313,4025 3316,4031 3320,4036 3323,4042 3326,4047 3330,4052 3333,4058 3337,4063 3340,4068 3343,4073 3347,4079 3350,4083 3353,4088 3360,4097 3364,4102 3367,4106 3370,4110 3374,4114 3377,4118 3384,4125 3388,4128 3394,4135 3398,4138 3401,4141 3405,4145 3408,4148 3411,4151 3415,4155 3418,4158 3425,4165 3429,4169 3432,4173 3435,4177 3439,4181 3442,4185 3446,4189 3449,4193 3452,4198 3456,4202 3459,4207 3463,4211 3466,4216 3469,4221 3473,4226 3476,4231 3480,4237 3483,4242 3487,4247 3493,4258 3497,4264 3500,4270 3504,4276 3507,4282 3510,4287 3514,4293 3517,4300 3521,4306 3524,4312 3527,4318 3531,4324 3534,4330 3538,4336 3541,4342 3545,4348 3548,4354 3551,4360 3555,4366 3558,4372 3562,4377 3565,4383 3568,4389 3572,4394 3575,4399 3579,4405 3582,4410 3585,4416 3589,4421 3592,4427 3596,4433 3599,4439 3603,4445 3606,4452 3609,4459 3613,4466 3616,4474 3620,4482 3623,4490 3626,4499 3630,4508 3633,4518 3637,4528 3640,4539 3643,4551 3647,4562 3650,4574 3654,4587 3657,4599 3661,4612 3664,4625 3667,4638 3671,4651 3674,4665 3678,4678 3681,4691 3684,4704 3688,4716 3691,4729 3695,4741 3698,4753 3701,4764 3705,4775 3708,4785 3712,4795 3715,4805 3719,4815 3722,4824 3725,4832 3729,4841 3732,4849 3736,4857 3739,4865 3742,4873 3746,4880 3749,4887 3753,4895 3756,4902 3759,4909 3763,4916 3766,4923 3770,4931 3773,4938 3777,4945 3780,4952 3783,4960 3787,4967 3790,4975 3794,4982 3797,4990 3800,4997 3804,5005 3807,5012 3811,5020 3814,5028 3817,5035 3821,5043 3824,5051 3828,5058 3831,5066 3835,5074 3838,5081 3841,5089 3845,5097 3848,5104 3852,5112 3855,5119 3858,5127 3862,5134 3865,5142 3869,5149 3872,5156 3875,5163 3879,5170 3882,5177 3886,5184 3889,5191 3893,5198 3896,5205 3899,5211 3903,5218 3906,5224 3910,5230 3913,5236 3916,5242 3920,5248 3923,5254 3927,5260 3930,5265 3933,5271 3937,5276 3940,5282 3944,5287 3947,5292 3951,5298 3954,5303 3957,5308 3961,5314 3964,5319 3968,5324 3971,5330 3974,5335 3978,5341 3981,5346 3985,5352 3988,5357 3992,5363 3995,5368 3998,5374 4002,5380 4005,5386 4009,5392 4012,5398 4015,5404 4019,5410 4022,5416 4026,5422 4029,5428 4032,5435 4036,5441 4039,5448 4043,5454 4046,5461 4049,5468 4053,5474 4056,5481 4060,5488 4063,5495 4066,5502 4070,5509 4073,5516 4077,5523 4080,5530 4083,5537 4087,5543 4090,5550 4094,5557 4097,5564 4101,5570 4104,5576 4107,5583 4111,5589 4114,5595 4118,5601 4121,5607 4125,5613 4128,5618 4132,5624 4135,5629 4139,5635 4142,5640 4146,5645 4153,5655 4156,5660 4159,5665 4163,5669 4166,5674 4169,5678 4173,5682 4176,5687 4179,5691 4182,5696 4189,5704 4192,5709 4195,5713 4198,5717 4204,5726 4208,5730 4211,5735 4218,5743 4221,5747 4225,5752 4232,5761 4236,5765 4239,5769 4243,5774 4252,5783 4256,5788 4260,5792 4265,5797 4269,5802 4274,5807 4279,5812 4283,5816 4288,5821 4293,5826 4298,5831 4307,5841 4312,5845 4316,5850 4321,5855 4325,5860 4334,5869 4338,5874 4342,5878 4346,5883 4354,5892 4358,5896 4361,5900 4365,5905 4371,5913 4375,5918 4378,5922 4384,5931 4388,5935 4391,5939 4397,5948 4400,5952 4403,5957 4407,5961 4410,5965 4413,5970 4416,5974 4420,5979 4423,5983 4426,5988 4430,5992 4433,5997 4437,6001 4444,6010 4447,6015 4450,6019 4457,6028 4461,6032 4464,6036 4468,6040 4471,6044 4475,6048 4478,6052 4482,6056 4485,6060 4489,6063 4492,6067 4495,6071 4502,6078 4506,6081 4513,6088 4516,6091 4519,6095 4523,6098 4530,6105 4533,6109 4536,6112 4540,6116 4543,6120 4546,6123 4550,6127 4557,6135 4560,6139 4567,6147 4570,6151 4574,6155 4577,6159 4581,6163 4584,6167 4587,6171 4591,6175 4594,6179 4598,6183 4604,6191 4608,6195 4615,6203 4618,6207 4622,6211 4625,6214 4628,6218 4632,6222 4635,6226 4639,6229 4642,6233 4645,6237 4649,6240 4656,6247 4659,6251 4663,6254 4666,6257 4669,6261 4673,6264 4676,6267 4680,6270 4686,6277 4690,6280 4693,6283 4697,6286 4703,6292 4710,6298 4714,6301 4717,6304 4720,6307 4724,6310 4727,6314 4731,6317 4734,6320 4741,6327 4748,6334 4751,6337 4758,6345 4761,6349 4768,6356 4772,6360 4775,6364 4779,6368 4782,6372 4785,6376 4789,6379 4792,6383 4796,6386 4799,6390 4802,6393 4809,6400 4813,6402 4816,6405 4819,6408 4823,6410 4830,6415 4833,6417 4840,6421 4843,6422 4847,6424 4854,6428 4857,6429 4864,6433 4867,6435 4874,6438 4884,6445 4891,6450 4895,6453 4898,6456 4901,6458 4905,6462 4912,6468 4918,6474 4922,6478 4925,6481 4929,6485 4935,6492 4939,6495 4942,6498 4946,6502 4953,6508 4956,6512 4959,6515 4963,6518 4966,6521 4970,6524 4973,6527 4976,6530 4983,6536 4990,6541 4993,6544 4997,6546 5000,6549 5007,6554 5011,6557 5014,6559 5021,6564 5028,6569 5031,6571 5038,6576 5048,6582 5055,6587 5062,6592 5065,6594 5072,6599 5079,6604 5082,6606 5086,6609 5092,6614 5096,6617 5099,6620 5103,6622 5109,6628 5116,6634 5120,6637 5123,6640 5127,6643 5130,6645 5137,6651 5144,6657 5147,6659 5150,6662 5154,6665 5157,6667 5164,6672 5174,6679 5181,6683 5191,6690 5198,6695 5208,6702 5215,6707 5219,6709 5222,6712 5225,6715 5229,6718 5236,6723 5243,6730 5246,6733 5249,6736 5253,6739 5260,6746 5263,6749 5266,6753 5273,6759 5277,6763 5280,6766 5283,6769 5290,6775 5297,6781 5301,6784 5304,6787 5307,6789 5311,6792 5318,6797 5324,6802 5335,6809 5345,6815 5352,6820 5362,6826 5372,6832 5379,6836 5382,6838 5389,6842 5399,6848 5406,6852 5410,6854 5417,6858 5420,6860 5427,6863 5430,6865 5434,6867 5440,6871 5444,6873 5451,6877 5461,6883 5468,6887 5471,6889 5478,6893 5488,6899 5498,6905 5505,6909 5509,6911 5515,6915 5519,6917 5526,6921 5533,6926 5536,6928 5543,6931 5546,6933 5553,6937 5556,6939 5560,6941 5567,6945 5570,6947 5577,6950 5587,6955 5591,6957 5597,6960 5601,6961 5604,6963 5614,6968 5625,6972 5628,6974 5631,6975 5638,6978 5642,6979 5652,6984 5659,6987 5666,6990 5669,6991 5679,6996 5686,6999 5689,7001 5696,7005 5700,7006 5703,7008 5710,7012 5713,7014 5720,7018 5724,7020 5730,7024 5741,7030 5751,7036 5758,7040 5761,7042 5768,7046 5778,7051 5782,7053 5785,7055 5792,7058 5795,7060 5805,7065 5812,7068 5816,7069 5822,7072 5829,7075 5840,7080 5843,7081 5850,7084 5854,7086 5857,7087 5867,7092 5874,7095 5881,7098 5885,7100 5891,7103 5895,7105 5901,7108 5905,7110 5911,7113 5914,7115 5921,7118 5927,7121 5930,7123 5936,7126 5940,7127 5946,7130 5950,7132 5957,7135 5964,7138 5968,7140 5976,7143 5985,7146 5993,7149 6003,7153 6007,7154 6012,7156 6022,7159 6026,7161 6031,7162 6040,7165 6050,7169 6059,7172 6067,7175 6075,7178 6083,7181 6086,7183 6093,7186 6100,7189 6110,7194 6119,7198 6123,7200 6129,7203 6135,7207 6139,7208 6145,7212 6155,7216 6165,7221 6169,7223 6172,7225 6179,7228 6183,7229 6193,7234 6200,7237 6207,7240 6210,7241 6217,7244 6221,7245 6228,7247 6238,7251 6245,7253 6255,7257 6265,7260 6272,7262 6282,7265 6289,7268 6292,7269 6299,7271 6306,7274 6309,7275 6316,7277 6323,7280 6326,7281 6337,7285 6343,7287 6354,7291 6364,7295 6367,7296 6371,7297 6381,7301 6384,7302 6391,7305 6398,7307 6401,7308 6408,7310 6418,7312 6422,7313 6425,7314 6436,7316 6442,7318 6449,7319 6453,7320 6463,7322 6470,7324 6473,7325 6480,7327 6490,7330 6494,7331 6497,7332 6507,7335 6511,7337 6517,7339 6524,7342 6534,7346 6541,7348 6545,7349 6552,7352 6555,7353 6562,7356 6569,7358 6572,7359 6579,7362 6589,7365 6596,7367 6606,7371 6616,7374 6620,7376 6623,7377 6633,7380 6637,7381 6644,7384 6650,7386 6654,7387 6661,7390 6671,7393 6678,7396 6685,7398 6688,7399 6695,7402 6702,7404 6705,7406 6715,7409 6719,7410 6722,7412 6732,7415 6736,7416 6743,7419 6749,7421 6753,7422 6760,7424 6770,7427 6777,7429 6787,7433 6797,7436 6804,7439 6814,7443 6818,7445 6821,7446 6828,7449 6831,7451 6842,7456 6848,7460 6852,7461 6859,7465 6862,7466 6869,7469 6876,7472 6886,7476 6893,7479 6896,7479 6903,7481 6913,7483 6923,7485 6930,7487 6941,7489 6944,7490 6947,7490 6958,7493 6964,7495 6968,7496 6975,7499 6981,7501 6985,7503 6995,7507 7002,7509 7012,7513 7022,7516 7029,7518 7039,7520 7050,7523 7053,7523 7056,7524 7067,7526 7074,7528 7080,7529 7084,7530 7094,7533 7101,7535 7111,7539 7118,7541 7121,7542 7128,7545 7132,7546 7138,7549 7149,7552 7155,7555 7166,7558 7176,7560 7183,7562 7186,7563 7193,7564 7200,7566 7210,7568 7213,7569 7220,7570 7227,7572 7238,7574 7241,7575 7248,7576 7255,7578 7265,7580 7272,7582 7282,7584 7289,7586 7292,7587 7302,7589 7308,7590 7314,7592 7318,7592 7327,7594 7337,7597 7341,7598 7344,7598 7356,7601 7364,7603 7372,7606 7381,7608 7386,7609 7390,7611 7400,7613 7404,7615 7409,7616 7419,7619 7423,7620 7428,7621 7437,7623 7446,7625 7450,7626 7455,7627 7463,7629 7470,7630 7481,7631 7484,7631 7491,7632 7497,7632 7507,7633 7516,7634 7526,7636 7536,7637 7543,7639 7553,7641 7560,7643 7563,7644 7570,7645 7581,7648 7588,7650 7598,7653 7605,7654 7608,7655 7615,7657 7625,7659 7629,7660 7636,7661 7642,7663 7652,7665 7663,7667 7669,7669 7680,7671 7687,7673 7697,7675 7704,7677 7707,7678 7714,7679 7724,7682 7728,7683 7734,7684 7741,7686 7748,7688 7751,7689 7762,7691 7768,7693 7772,7694 7779,7695 7789,7697 7796,7698 7803,7699 7806,7700 7813,7701 7823,7702 7833,7703 7840,7703 7850,7705 7854,7705 7861,7706 7867,7707 7878,7709 7888,7711 7895,7713 7905,7715 7912,7717 7915,7718 7922,7720 7932,7722 7939,7724 7949,7726 7956,7728 7960,7729 7966,7730 7977,7733 7980,7733 7987,7735 7994,7736 8004,7739 8014,7742 8021,7743 8028,7745 8031,7746 8041,7748 8048,7750 8052,7751 8058,7752 8065,7753 8076,7755 8086,7756 8093,7757 8103,7758 8113,7759 8120,7760 8130,7761 8137,7762 8140,7762 8147,7764 8157,7766 8168,7768 8174,7770 8185,7772 8188,7773 8192,7774 8202,7777 8209,7779 8212,7780 8219,7782 8229,7784 8232,7785 8239,7787 8246,7788 8256,7791 8267,7793 8273,7794 8284,7795 8290,7796 8294,7796 8301,7797 8311,7798 8318,7799 8328,7800 8338,7801 8342,7802 8345,7802 8355,7804 8366,7806 8372,7808 8383,7810 8393,7813 8400,7815 8410,7817 8417,7819 8420,7820 8427,7822 8437,7825 8444,7826 8454,7829 8461,7830 8464,7831 8471,7832 8482,7834 8492,7835 8495,7836 8499,7836 8509,7837 8519,7839 8526,7839 8536,7840 8546,7841 8553,7842 8563,7843 8570,7844 8581,7845 8591,7847 8594,7847 8598,7847 8608,7849 8618,7850 8625,7850 8635,7851 8645,7852 8652,7853 8662,7854 8672,7855 8679,7857 8690,7859 8697,7860 8707,7862 8714,7864 8718,7865 8724,7867 8735,7869 8738,7870 8745,7872 8751,7873 8761,7875 8764,7875 8770,7876 8780,7878 8790,7879 8796,7879 8807,7880 8815,7881 8819,7881 8824,7881 8832,7882 8841,7882 8851,7883 8860,7884 8870,7884 8879,7885 8888,7886 8897,7887 8906,7888 8914,7890 8922,7891 8930,7893 8933,7893 8940,7895 8950,7898 8953,7899 8960,7900 8969,7903 8975,7904 8979,7905 8985,7906 8995,7908 9005,7909 9009,7909 9012,7910 9021,7911 9032,7912 9039,7912 9049,7913 9056,7913 9066,7914 9077,7915 9083,7916 9094,7917 9104,7919 9111,7920 9117,7921 9121,7922 9131,7924 9138,7926 9141,7927 9148,7929 9158,7931 9162,7932 9165,7933 9175,7935 9182,7937 9193,7938 9203,7939 9210,7940 9220,7941 9230,7942 9237,7943 9244,7943 9247,7944 9257,7946 9264,7947 9274,7950 9285,7952 9291,7954 9295,7955 9302,7956 9308,7958 9319,7960 9322,7961 9329,7962 9336,7963 9346,7965 9356,7966 9363,7966 9373,7967 9384,7968 9390,7968 9401,7969 9411,7970 9418,7971 9428,7972 9435,7973 9445,7974 9455,7976 9462,7978 9472,7980 9483,7982 9486,7983 9489,7984 9500,7987 9510,7989 9517,7991 9527,7993 9537,7994 9541,7995 9544,7995 9554,7996 9561,7997 9571,7998 9581,7999 9588,8000 9595,8000 9599,8001 9609,8002 9616,8003 9626,8004 9636,8005 9643,8006 9653,8007 9663,8008 9670,8009 9680,8010 9687,8011 9694,8012 9697,8012 9708,8013 9715,8014 9725,8015 9735,8017 9738,8017 9742,8018 9752,8019 9762,8021 9769,8021 9779,8023 9786,8023 9790,8023 9796,8024 9807,8024 9813,8024 9824,8024 9834,8024 9841,8024 9851,8023 9861,8024 9868,8024 9878,8025 9889,8026 9895,8027 9906,8028 9912,8029 9916,8029 9923,8030 9933,8032 9940,8033 9950,8034 9953,8034 9960,8035 9967,8036 9977,8037 9987,8038 9994,8039 10005,8040 10015,8041 10022,8042 10032,8043 10039,8044 10050,8045 10056,8046 10060,8046 10066,8047 10076,8048 10085,8050 10095,8051 10101,8052 10104,8052 10111,8053 10122,8054 10130,8055 10142,8056 10150,8057 10155,8057 10160,8057 10169,8058 10178,8059 10183,8059 10193,8060 10202,8061 10211,8062 10220,8063 10229,8063 10240,8065 10248,8065 10258,8067 10265,8067 10275,8069 10284,8070 10294,8071 10303,8072 10310,8073 10320,8074 10330,8075 10337,8076 10348,8077 10355,8078 10365,8079 10369,8080 10375,8080 10382,8081 10393,8082 10403,8084 10410,8084 10420,8086 10426,8086 10437,8088 10447,8089 10454,8090 10464,8091 10467,8091 10474,8092 10481,8093 10491,8094 10502,8095 10508,8096 10519,8097 10529,8098 10536,8099 10546,8100 10553,8101 10563,8102 10566,8103 10573,8104 10580,8105 10590,8106 10600,8107 10607,8108 10618,8109 10628,8110 10635,8111 10645,8111 10655,8111 10662,8111 10672,8111 10679,8111 10689,8111 10699,8111 10706,8111 10716,8112 10727,8112 10734,8113 10740,8114 10744,8114 10754,8116 10761,8117 10771,8118 10778,8120 10781,8120 10788,8121 10798,8123 10805,8124 10815,8125 10819,8125 10826,8126 10832,8126 10843,8127 10853,8127 10860,8127 10870,8127 10880,8127 10887,8127 10897,8127 10908,8127 10914,8127 10925,8128 10931,8129 10942,8130 10952,8131 10959,8132 10969,8133 10979,8135 10986,8136 10993,8137 10996,8137 11006,8138 11013,8139 11024,8140 11034,8141 11041,8142 11044,8142 11051,8143 11058,8144 11068,8146 11078,8147 11085,8148 11095,8149 11105,8150 11112,8151 11122,8151 11133,8151 11140,8151 11150,8151 11160,8151 11167,8150 11177,8151 11184,8151 11194,8151 11204,8152 11211,8153 11215,8154 11221,8154 11232,8156 11238,8157 11249,8158 11259,8160 11266,8160 11276,8162 11286,8163 11293,8163 11303,8165 11307,8165 11310,8165 11320,8167 11331,8168 11337,8169 11348,8170 11351,8171 11358,8172 11365,8173 11375,8174 11385,8174 11392,8175 11402,8175 11412,8175 11419,8175 11430,8174 11436,8174 11447,8174 11457,8175 11464,8175 11474,8176 11481,8176 11484,8177 11491,8177 11501,8179 11511,8180 11518,8181 11522,8182 11529,8183 11539,8185 11546,8186 11556,8187 11563,8188 11573,8189 11583,8190 11590,8190 11600,8191 11610,8191 11617,8191 11627,8190 11638,8190 11644,8190 11655,8190 11665,8191 11672,8191 11682,8192 11689,8193 11696,8193 11699,8194 11709,8195 11716,8196 11726,8198 11737,8199 11743,8200 11754,8202 11764,8203 11771,8204 11777,8205 11781,8205 11791,8206 11798,8206 11808,8206 11815,8206 11826,8206 11836,8206 11843,8206 11853,8206 11863,8206 11869,8207 11879,8208 11888,8209 11898,8210 11908,8212 11915,8213 11926,8214 11935,8214 11943,8214 11952,8215 11961,8215 11971,8214 11980,8214 11990,8214 11999,8214 12008,8214 12017,8214 12026,8214 12034,8215 12041,8215 12048,8216 12052,8217 12059,8218 12068,8219 12078,8220 12087,8222 12091,8222 12097,8222 12104,8223 12114,8223 12124,8222 12131,8222 12141,8222 12152,8222 12159,8222 12169,8222 12176,8223 12186,8224 12196,8225 12203,8226 12213,8227 12223,8229 12230,8230 12240,8232 12251,8233 12257,8234 12268,8236 12278,8237 12285,8237 12295,8238 12302,8238 12312,8238 12322,8238 12329,8238 12339,8238 12350,8237 12356,8238 12367,8238 12377,8239 12384,8240 12394,8241 12404,8243 12411,8243 12421,8245 12428,8245 12438,8246 12449,8246 12455,8246 12466,8246 12476,8246 12483,8246 12493,8246 12503,8246 12510,8246 12520,8248 12530,8249 12537,8250 12541,8250 12548,8251 12554,8252 12565,8253 12575,8254 12582,8254 12592,8254 12602,8254 12609,8254 12619,8254 12629,8254 12636,8254 12646,8254 12657,8255 12664,8256 12667,8256 12674,8257 12681,8258 12691,8259 12701,8261 12708,8262 12718,8263 12728,8265 12735,8266 12745,8267 12749,8267 12756,8268 12762,8269 12773,8270 12783,8270 12790,8270 12800,8271 12807,8271 12817,8270 12827,8270 12834,8270 12844,8270 12855,8269 12861,8269 12872,8269 12882,8269 12889,8269 12899,8269 12909,8269 12916,8270 12926,8271 12933,8272 12940,8273 12943,8273 12954,8275 12960,8276 12971,8277 12981,8278 12988,8278 12998,8278 13008,8278 13015,8278 13025,8277 13035,8277 13042,8277 13052,8278 13059,8279 13070,8280 13080,8281 13087,8282 13097,8284 13104,8284 13107,8285 13114,8285 13124,8286 13134,8286 13141,8286 13151,8286 13162,8285 13168,8285 13179,8285 13186,8286 13196,8286 13206,8288 13213,8289 13223,8290 13233,8291 13240,8292 13250,8293 13261,8294 13267,8294 13278,8294 13288,8294 13295,8293 13305,8293 13312,8293 13322,8294 13332,8294 13339,8295 13342,8296 13349,8296 13360,8298 13366,8299 13377,8300 13387,8301 13394,8302 13404,8302 13414,8302 13421,8302 13431,8301 13438,8301 13445,8301 13448,8301 13458,8301 13465,8302 13476,8303 13486,8304 13493,8305 13503,8307 13506,8307 13513,8308 13520,8309 13530,8310 13540,8310 13547,8310 13557,8311 13564,8310 13575,8310 13585,8310 13592,8310 13602,8309 13612,8309 13619,8309 13629,8308 13639,8308 13646,8308 13656,8309 13667,8310 13674,8310 13684,8312 13691,8313 13701,8314 13712,8315 13718,8316 13728,8317 13738,8318 13747,8318 13754,8318 13763,8317 13773,8317 13784,8317 13792,8317 13800,8317 13808,8318 13817,8319 13826,8319 13836,8320 13845,8321 13855,8322 13864,8323 13873,8324 13882,8325 13891,8325 13899,8326 13910,8326 13917,8326 13927,8325 13937,8325 13943,8325 13953,8325 13962,8325 13972,8326 13982,8328 13989,8329 13996,8330 13999,8330 14006,8331 14017,8332 14027,8333 14034,8334 14044,8334 14051,8334 14061,8333 14072,8333 14078,8333 14089,8333 14099,8333 14106,8334 14116,8335 14119,8335 14126,8336 14133,8337 14143,8339 14153,8340 14160,8341 14164,8341 14170,8342 14177,8342 14188,8342 14198,8342 14205,8342 14215,8342 14225,8341 14232,8341 14239,8341 14242,8341 14252,8340 14259,8340 14269,8340 14280,8340 14286,8340 14297,8341 14300,8341 14304,8341 14314,8343 14324,8344 14331,8345 14341,8346 14344,8347 14351,8348 14358,8348 14368,8349 14379,8349 14385,8349 14396,8349 14406,8349 14413,8349 14423,8349 14430,8349 14440,8349 14450,8350 14457,8351 14467,8352 14478,8354 14484,8355 14495,8356 14505,8357 14512,8357 14522,8358 14525,8358 14532,8358 14539,8358 14546,8358 14549,8358 14556,8358 14566,8357 14576,8357 14583,8357 14594,8356 14604,8356 14611,8356 14621,8356 14631,8356 14638,8357 14648,8358 14652,8358 14658,8359 14665,8360 14675,8361 14682,8362 14692,8363 14699,8364 14703,8364 14710,8365 14720,8366 14730,8366 14737,8366 14747,8366 14757,8366 14764,8365 14774,8365 14785,8365 14791,8364 14802,8364 14808,8364 14819,8364 14829,8364 14836,8364 14846,8365 14856,8366 14863,8367 14873,8368 14884,8369 14890,8370 14901,8372 14911,8373 14918,8373 14928,8374 14935,8374 14945,8374 14955,8374 14962,8374 14972,8373 14982,8373 14989,8373 15000,8372 15010,8372 15017,8372 15027,8372 15037,8372 15044,8372 15054,8373 15061,8374 15071,8375 15081,8376 15088,8377 15098,8379 15109,8380 15116,8381 15119,8381 15126,8381 15136,8382 15143,8382 15153,8382 15163,8382 15170,8381 15180,8381 15187,8381 15191,8381 15197,8380 15208,8380 15214,8380 15225,8380 15235,8380 15242,8380 15252,8381 15255,8381 15262,8381 15269,8382 15279,8383 15290,8385 15296,8386 15303,8387 15307,8387 15313,8388 15324,8389 15334,8389 15341,8390 15351,8390 15361,8390 15368,8390 15378,8389 15388,8389 15395,8389 15406,8388 15416,8388 15423,8388 15433,8388 15440,8388 15450,8388 15460,8389 15467,8389 15477,8391 15487,8392 15491,8392 15494,8393 15504,8394 15515,8395 15522,8396 15532,8397 15542,8397 15549,8397 15559,8397 15566,8397 15576,8397 15586,8397 15593,8397 15603,8397 15614,8397 15621,8397 15631,8397 15641,8397 15648,8397 15658,8397 15668,8397 15675,8396 15685,8396 15692,8396 15702,8396 15712,8396 15719,8396 15730,8396 15740,8397 15747,8398 15757,8399 15764,8400 15775,8401 15785,8403 15792,8404 15801,8405 15811,8405 15820,8406 15830,8406 15836,8406 15847,8405 15858,8405 15865,8405 15874,8404 15882,8404 15892,8404 15901,8404 15910,8404 15920,8404 15929,8404 15939,8404 15948,8404 15956,8404 15965,8405 15972,8406 15983,8407 15990,8408 16000,8409 16010,8411 16019,8412 16026,8412 16035,8413 16045,8413 16055,8413 16062,8413 16073,8412 16080,8412 16090,8412 16100,8413 16107,8413 16118,8414 16121,8415 16128,8416 16135,8417 16145,8418 16155,8419 16162,8420 16165,8420 16172,8421 16179,8421 16189,8422 16199,8422 16206,8421 16216,8421 16227,8421 16234,8420 16237,8420 16244,8420 16254,8420 16261,8420 16271,8419 16281,8419 16288,8420 16298,8420 16302,8420 16305,8421 16315,8422 16326,8423 16332,8424 16343,8425 16350,8426 16353,8427 16360,8428 16370,8428 16380,8429 16387,8429 16397,8429 16408,8429 16414,8429 16425,8429 16431,8429 16442,8428 16452,8428 16459,8428 16469,8428 16479,8428 16486,8428 16496,8429 16506,8428 16513,8428 16524,8428 16534,8428 16541,8428 16551,8428 16558,8428 16568,8428 16578,8429 16585,8429 16595,8431 16605,8432 16612,8433 16622,8434 16633,8435 16640,8436 16650,8437 16660,8437 16667,8437 16677,8437 16684,8437 16694,8437 16704,8436 16711,8436 16721,8436 16732,8436 16738,8436 16749,8436 16759,8436 16766,8436 16776,8436 16786,8436 16793,8436 16803,8436 16810,8436 16820,8436 16831,8436 16837,8436 16848,8436 16858,8437 16861,8438 16865,8438 16875,8439 16885,8441 16892,8442 16902,8443 16906,8443 16912,8444 16919,8445 16930,8445 16936,8445 16947,8445 16957,8445 16964,8445 16974,8444 16984,8444 16991,8444 17001,8444 17011,8444 17018,8444 17028,8444 17039,8444 17046,8444 17056,8444 17063,8444 17073,8444 17083,8444 17090,8443 17100,8443 17110,8444 17117,8444 17127,8445 17138,8446 17144,8447 17155,8448 17162,8449 17165,8450 17172,8450 17182,8452 17189,8452 17199,8453 17209,8453 17216,8453 17226,8453 17237,8453 17243,8453 17254,8452 17264,8452 17271,8452 17281,8452 17291,8452 17298,8452 17308,8452 17315,8452 17325,8452 17336,8452 17342,8452 17353,8452 17363,8452 17370,8452 17380,8452 17390,8452 17397,8452 17407,8452 17417,8452 17424,8452 17434,8452 17441,8452 17452,8452 17462,8452 17469,8452 17479,8452 17489,8452 17496,8452 17506,8452 17516,8452 17523,8452 17533,8452 17544,8453 17550,8454 17557,8455 17561,8455 17568,8456 17578,8457 17588,8459 17595,8460 17602,8461 17605,8461 17615,8462 17622,8463 17632,8464 17643,8465 17649,8466 17660,8467 17667,8468"/>
 <text class="TextShape"><tspan class="TextParagraph" font-family="Liberation Sans, sans-serif" font-size="353px" font-weight="400"><tspan class="TextPosition" x="1754" y="10068"><tspan fill="rgb(0,0,0)" stroke="none">00:00</tspan></tspan></tspan></text>
 <text class="TextShape"><tspan class="TextParagraph" font-family="Liberation Sans, sans-serif" font-size="353px" font-weight="400"><tspan class="TextPosition" x="3118" y="10068"><tspan fill="rgb(0,0,0)" stroke="none">01:00</tspan></tspan></tspan></text>
 <text class="TextShape"><tspan class="TextParagraph" font-family="Liberation Sans, sans-serif" font-size="353px" font-weight="400"><tspan class="TextPosition" x="4483" y="10068"><tspan fill="rgb(0,0,0)" stroke="none">02:00</tspan></tspan></tspan></text>
 <text class="TextShape"><tspan class="TextParagraph" font-family="Liberation Sans, sans-serif" font-size="353px" font-weight="400"><tspan class="TextPosition" x="5848" y="10068"><tspan fill="rgb(0,0,0)" stroke="none">03:00</tspan></tspan></tspan></text>
 <text class="TextShape"><tspan class="TextParagraph" font-family="Liberation Sans, sans-serif" font-size="353px" font-weight="400"><tspan class="TextPosition" x="7213" y="10068"><tspan fill="rgb(0,0,0)" stroke="none">04:00</tspan></tspan></tspan></text>
 <text class="TextShape"><tspan class="TextParagraph" font-family="Liberation Sans, sans-serif" font-size="353px" font-weight="400"><tspan class="TextPosition" x="8577" y="10068"><tspan fill="rgb(0,0,0)" stroke="none">05:00</tspan></tspan></tspan></text>
 <text class="TextShape"><tspan class="TextParagraph" font-family="Liberation Sans, sans-serif" font-size="353px" font-weight="400"><tspan class="TextPosition" x="9942" y="10068"><tspan fill="rgb(0,0,0)" stroke="none">06:00</tspan></tspan></tspan></text>
 <text class="TextShape"><tspan class="TextParagraph" font-family="Liberation Sans, sans-serif" font-size="353px" font-weight="400"><tspan class="TextPosition" x="11307" y="10068"><tspan fill="rgb(0,0,0)" stroke="none">07:00</tspan></tspan></tspan></text>
 <text class="TextShape"><tspan class="TextParagraph" font-family="Liberation Sans, sans-serif" font-size="353px" font-weight="400"><tspan class="TextPosition" x="12672" y="10068"><tspan fill="rgb(0,0,0)" stroke="none">08:00</tspan></tspan></tspan></text>
 <text class="TextShape"><tspan class="TextParagraph" font-family="Liberation Sans, sans-serif" font-size="353px" font-weight="400"><tspan class="TextPosition" x="14036" y="10068"><tspan fill="rgb(0,0,0)" stroke="none">09:00</tspan></tspan></tspan></text>
 <text class="TextShape"><tspan class="TextParagraph" font-family="Liberation Sans, sans-serif" font-size="353px" font-weight="400"><tspan class="TextPosition" x="15401" y="10068"><tspan fill="rgb(0,0,0)" stroke="none">10:00</tspan></tspan></tspan></text>
 <text class="TextShape"><tspan class="TextParagraph" font-family="Liberation Sans, sans-serif" font-size="353px" font-weight="400"><tspan class="TextPosition" x="16766" y="10068"><tspan fill="rgb(0,0,0)" stroke="none">11:00</tspan></tspan></tspan></text>
 <text class="TextShape"><tspan class="TextParagraph" font-family="Liberation Sans, sans-serif" font-size="353px" font-weight="400"><tspan class="TextPosition" x="1743" y="9621"><tspan fill="rgb(0,0,0)" stroke="none">0</tspan></tspan></tspan></text>
 <text class="TextShape"><tspan class="TextParagraph" font-family="Liberation Sans, sans-serif" font-size="353px" font-weight="400"><tspan class="TextPosition" x="1558" y="8827"><tspan fill="rgb(0,0,0)" stroke="none">10</tspan></tspan></tspan></text>
 <text class="TextShape"><tspan class="TextParagraph" font-family="Liberation Sans, sans-serif" font-size="353px" font-weight="400"><tspan class="TextPosition" x="1558" y="8034"><tspan fill="rgb(0,0,0)" stroke="none">20</tspan></tspan></tspan></text>
 <text class="TextShape"><tspan class="TextParagraph" font-family="Liberation Sans, sans-serif" font-size="353px" font-weight="400"><tspan class="TextPosition" x="1558" y="7240"><tspan fill="rgb(0,0,0)" stroke="none">30</tspan></tspan></tspan></text>
 <text class="TextShape"><tspan class="TextParagraph" font-family="Liberation Sans, sans-serif" font-size="353px" font-weight="400"><tspan class="TextPosition" x="1558" y="6447"><tspan fill="rgb(0,0,0)" stroke="none">40</tspan></tspan></tspan></text>
 <text class="TextShape"><tspan class="TextParagraph" font-family="Liberation Sans, sans-serif" font-size="353px" font-weight="400"><tspan class="TextPosition" x="1558" y="5654"><tspan fill="rgb(0,0,0)" stroke="none">50</tspan></tspan></tspan></text>
 <text class="TextShape"><tspan class="TextParagraph" font-family="Liberation Sans, sans-serif" font-size="353px" font-weight="400"><tspan class="TextPosition" x="1558" y="4860"><tspan fill="rgb(0,0,0)" stroke="none">60</tspan></tspan></tspan></text>
 <text class="TextShape"><tspan class="TextParagraph" font-family="Liberation Sans, sans-serif" font-size="353px" font-weight="400"><tspan class="TextPosition" x="1558" y="4067"><tspan fill="rgb(0,0,0)" stroke="none">70</tspan></tspan></tspan></text>
 <text class="TextShape"><tspan class="TextParagraph" font-family="Liberation Sans, sans-serif" font-size="353px" font-weight="400"><tspan class="TextPosition" x="1558" y="3273"><tspan fill="rgb(0,0,0)" stroke="none">80</tspan></tspan></tspan></text>
 <text class="TextShape"><tspan class="TextParagraph" font-family="Liberation Sans, sans-serif" font-size="353px" font-weight="400"><tspan class="TextPosition" x="1558" y="2480"><tspan fill="rgb(0,0,0)" stroke="none">90</tspan></tspan></tspan></text>
 <text class="TextShape"><tspan class="TextParagraph" font-family="Liberation Sans, sans-serif" font-size="353px" font-weight="400"><tspan class="TextPosition" x="1372" y="1687"><tspan fill="rgb(0,0,0)" stroke="none">100</tspan></tspan></tspan></text>
 <text class="TextShape"><tspan class="TextParagraph" font-family="Liberation Sans, sans-serif" font-size="459px" font-weight="400"><tspan class="TextPosition" x="7783" y="898"><tspan fill="rgb(0,0,0)" stroke="none">Uso de CPU</tspan></tspan></tspan></text>
 <text class="TextShape"><tspan class="TextParagraph" font-family="Liberation Sans, sans-serif" font-size="318px" font-weight="400"><tspan class="TextPosition" x="8288" y="10762"><tspan fill="rgb(0,0,0)" stroke="none">Tempo decorrido</tspan></tspan></tspan></text>
 <text class="TextShape" transform="rotate(-90 837 8126)"><tspan class="TextParagraph" font-family="Liberation Sans, sans-serif" font-size="318px" font-weight="400"><tspan class="TextPosition" x="837" y="8126"><tspan fill="rgb(0,0,0)" stroke="none">Percentual de uso pelo processo</tspan></tspan></tspan></text>
</svg>