<?xml version="1.0" encoding="UTF-8"?>
<!DOCTYPE svg PUBLIC "-//W3C//DTD SVG 1.1//EN" "http://www.w3.org/Graphics/SVG/1.1/DTD/svg11.dtd">
<svg width="180mm" height="119mm" viewBox="0 0 18000 11900" version="1.1" xmlns="http://www.w3.org/2000/svg" xmlns:xlink="http://www.w3.org/1999/xlink" stroke-width="28.222" stroke-linejoin="round" xml:space="preserve">
 <path fill="rgb(255,255,255)" stroke="none" d="M 9006,11943 L 0,11943 0,0 18012,0 18012,11943 9006,11943 Z"/>
 <path fill="none" stroke="rgb(179,179,179)" stroke-linejoin="round" d="M 10005,10074 L 2362,10074 2362,2073 17649,2073 17649,10074 10005,10074 Z"/>
 <path fill="none" stroke="rgb(221,221,221)" stroke-linejoin="round" d="M 3035,2072 L 3035,10073"/>
 <path fill="none" stroke="rgb(221,221,221)" stroke-linejoin="round" d="M 4382,2072 L 4382,10073"/>
 <path fill="none" stroke="rgb(221,221,221)" stroke-linejoin="round" d="M 5729,2072 L 5729,10073"/>
 <path fill="none" stroke="rgb(221,221,221)" stroke-linejoin="round" d="M 7076,2072 L 7076,10073"/>
 <path fill="none" stroke="rgb(221,221,221)" stroke-linejoin="round" d="M 8423,2072 L 8423,10073"/>
 <path fill="none" stroke="rgb(221,221,221)" stroke-linejoin="round" d="M 9769,2072 L 9769,10073"/>
 <path fill="none" stroke="rgb(221,221,221)" stroke-linejoin="round" d="M 11116,2072 L 11116,10073"/>
 <path fill="none" stroke="rgb(221,221,221)" stroke-linejoin="round" d="M 12463,2072 L 12463,10073"/>
 <path fill="none" stroke="rgb(221,221,221)" stroke-linejoin="round" d="M 13810,2072 L 13810,10073"/>
 <path fill="none" stroke="rgb(221,221,221)" stroke-linejoin="round" d="M 15157,2072 L 15157,10073"/>
 <path fill="none" stroke="rgb(221,221,221)" stroke-linejoin="round" d="M 16504,2072 L 16504,10073"/>
 <path fill="none" stroke="rgb(179,179,179)" stroke-linejoin="round" d="M 17649,10073 L 2362,10073"/>
 <path fill="none" stroke="rgb(179,179,179)" stroke-linejoin="round" d="M 17649,9592 L 2362,9592"/>
 <path fill="none" stroke="rgb(179,179,179)" stroke-linejoin="round" d="M 17649,9112 L 2362,9112"/>
 <path fill="none" stroke="rgb(179,179,179)" stroke-linejoin="round" d="M 17649,8632 L 2362,8632"/>
 <path fill="none" stroke="rgb(179,179,179)" stroke-linejoin="round" d="M 17649,8152 L 2362,8152"/>
 <path fill="none" stroke="rgb(179,179,179)" stroke-linejoin="round" d="M 17649,7672 L 2362,7672"/>
 <path fill="none" stroke="rgb(179,179,179)" stroke-linejoin="round" d="M 17649,7192 L 2362,7192"/>
 <path fill="none" stroke="rgb(179,179,179)" stroke-linejoin="round" d="M 17649,6712 L 2362,6712"/>
 <path fill="none" stroke="rgb(179,179,179)" stroke-linejoin="round" d="M 17649,6232 L 2362,6232"/>
 <path fill="none" stroke="rgb(179,179,179)" stroke-linejoin="round" d="M 17649,5752 L 2362,5752"/>
 <path fill="none" stroke="rgb(179,179,179)" stroke-linejoin="round" d="M 17649,5272 L 2362,5272"/>
 <path fill="none" stroke="rgb(179,179,179)" stroke-linejoin="round" d="M 17649,4792 L 2362,4792"/>
 <path fill="none" stroke="rgb(179,179,179)" stroke-linejoin="round" d="M 17649,4312 L 2362,4312"/>
 <path fill="none" stroke="rgb(179,179,179)" stroke-linejoin="round" d="M 17649,3832 L 2362,3832"/>
 <path fill="none" stroke="rgb(179,179,179)" stroke-linejoin="round" d="M 17649,3352 L 2362,3352"/>
 <path fill="none" stroke="rgb(179,179,179)" stroke-linejoin="round" d="M 17649,2872 L 2362,2872"/>
 <path fill="none" stroke="rgb(179,179,179)" stroke-linejoin="round" d="M 17649,2392 L 2362,2392"/>
 <path fill="none" stroke="rgb(128,0,128)" stroke-width="80" stroke-linejoin="round" d="M 2362,9175 L 2429,7595 2496,6520 2564,6128 2631,5724 2698,5319 2766,4951 2833,4459 2900,3890 2968,3176 3035,2881 3102,2881 3170,2880 3237,2880 3327,2880 3394,2880 3462,2880 3529,2880 3596,2880 3664,2878 3731,2878 3798,2878 3866,2878 3933,2878 4000,2878 4068,2878 4135,2878 4202,2878 4270,2878 4337,2878 4404,2878 4494,2878 4562,2878 4629,2878 4696,2878 4764,2878 4831,2878 4898,2878 4966,2878 5033,2878 5100,2878 5168,2878 5235,2878 5302,2878 5370,2878 5437,2878 5504,2878 5572,2878 5639,2878 5706,2878 5774,2878 5841,2878 5908,2878 5976,2878 6043,2878 6111,2878 6200,2878 6268,2878 6335,2878 6402,2878 6470,2878 6537,2878 6604,2878 6672,2878 6739,2878 6806,2878 6874,2878 6941,2878 7009,2878 7076,2878 7143,2878 7211,2878 7278,2878 7345,2878 7413,2878 7480,2878 7570,2878 7637,2878 7704,2878 7772,2878 7839,2878 7906,2878 7974,2878 8041,2878 8109,2878 8176,2878 8243,2878 8311,2878 8378,2878 8445,2878 8513,2878 8580,2878 8647,2878 8715,2878 8782,2878 8849,2878 8917,2878 9006,2880 9073,2880 9140,2880 9208,2880 9275,2880 9342,2880 9410,2880 9477,2880 9544,2880 9612,2880 9679,2880 9746,2880 9814,2880 9881,2880 9948,2880 10016,2880 10083,2880 10150,2880 10218,2880 10308,2880 10375,2880 10442,2880 10510,2880 10577,2880 10644,2880 10712,2880 10779,2880 10846,2880 10914,2880 10981,2880 11048,2880 11116,2880 11183,2880 11250,2880 11318,2880 11385,2880 11452,2880 11520,2880 11587,2880 11655,2880 11722,2880 11789,2880 11857,2880 11924,2880 11991,2880 12081,2880 12148,2880 12216,2880 12283,2880 12350,2880 12418,2880 12485,2880 12553,2880 12620,2880 12687,2880 12755,2880 12822,2880 12889,2880 12957,2880 13024,2880 13091,2880 13159,2880 13226,2880 13293,2880 13361,2880 13428,2880 13495,2880 13563,2880 13630,2880 13697,2880 13765,2880 13832,2880 13922,2880 13989,2880 14057,2880 14124,2880 14191,2880 14259,2880 14326,2880 14393,2880 14461,2880 14528,2880 14595,2880 14663,2880 14730,2880 14797,2880 14865,2880 14932,2880 14999,2880 15067,2880 15134,2880 15202,2880 15269,2880 15336,2880 15404,2880 15471,2880 15538,2880 15606,2880 15673,2880 15740,2880 15808,2880 15875,2880 15965,2880 16032,2880 16099,2880 16167,2880 16234,2880 16302,2880 16369,2880 16436,2880 16504,2880 16571,2880 16638,2880 16706,2880 16773,2880 16840,2880 16908,2880 16975,2880 17042,2880 17110,2880 17177,2880 17244,2880 17312,2880 17379,3037 17446,3486 17514,3486 17581,3486 17649,3486"/>
 <text class="TextShape"><tspan class="TextParagraph" font-family="Liberation Sans, sans-serif" font-size="353px" font-weight="400"><tspan class="TextPosition" x="1938" y="10641"><tspan fill="rgb(0,0,0)" stroke="none">00:00</tspan></tspan></tspan></text>
 <text class="TextShape"><tspan class="TextParagraph" font-family="Liberation Sans, sans-serif" font-size="353px" font-weight="400"><tspan class="TextPosition" x="3284" y="10641"><tspan fill="rgb(0,0,0)" stroke="none">01:00</tspan></tspan></tspan></text>
 <text class="TextShape"><tspan class="TextParagraph" font-family="Liberation Sans, sans-serif" font-size="353px" font-weight="400"><tspan class="TextPosition" x="4631" y="10641"><tspan fill="rgb(0,0,0)" stroke="none">02:00</tspan></tspan></tspan></text>
 <text class="TextShape"><tspan class="TextParagraph" font-family="Liberation Sans, sans-serif" font-size="353px" font-weight="400"><tspan class="TextPosition" x="5978" y="10641"><tspan fill="rgb(0,0,0)" stroke="none">03:00</tspan></tspan></tspan></text>
 <text class="TextShape"><tspan class="TextParagraph" font-family="Liberation Sans, sans-serif" font-size="353px" font-weight="400"><tspan class="TextPosition" x="7325" y="10641"><tspan fill="rgb(0,0,0)" stroke="none">04:00</tspan></tspan></tspan></text>
 <text class="TextShape"><tspan class="TextParagraph" font-family="Liberation Sans, sans-serif" font-size="353px" font-weight="400"><tspan class="TextPosition" x="8672" y="10641"><tspan fill="rgb(0,0,0)" stroke="none">05:00</tspan></tspan></tspan></text>
 <text class="TextShape"><tspan class="TextParagraph" font-family="Liberation Sans, sans-serif" font-size="353px" font-weight="400"><tspan class="TextPosition" x="10019" y="10641"><tspan fill="rgb(0,0,0)" stroke="none">06:00</tspan></tspan></tspan></text>
 <text class="TextShape"><tspan class="TextParagraph" font-family="Liberation Sans, sans-serif" font-size="353px" font-weight="400"><tspan class="TextPosition" x="11366" y="10641"><tspan fill="rgb(0,0,0)" stroke="none">07:00</tspan></tspan></tspan></text>
 <text class="TextShape"><tspan class="TextParagraph" font-family="Liberation Sans, sans-serif" font-size="353px" font-weight="400"><tspan class="TextPosition" x="12713" y="10641"><tspan fill="rgb(0,0,0)" stroke="none">08:00</tspan></tspan></tspan></text>
 <text class="TextShape"><tspan class="TextParagraph" font-family="Liberation Sans, sans-serif" font-size="353px" font-weight="400"><tspan class="TextPosition" x="14060" y="10641"><tspan fill="rgb(0,0,0)" stroke="none">09:00</tspan></tspan></tspan></text>
 <text class="TextShape"><tspan class="TextParagraph" font-family="Liberation Sans, sans-serif" font-size="353px" font-weight="400"><tspan class="TextPosition" x="15407" y="10641"><tspan fill="rgb(0,0,0)" stroke="none">10:00</tspan></tspan></tspan></text>
 <text class="TextShape"><tspan class="TextParagraph" font-family="Liberation Sans, sans-serif" font-size="353px" font-weight="400"><tspan class="TextPosition" x="16754" y="10641"><tspan fill="rgb(0,0,0)" stroke="none">11:00</tspan></tspan></tspan></text>
 <text class="TextShape"><tspan class="TextParagraph" font-family="Liberation Sans, sans-serif" font-size="353px" font-weight="400"><tspan class="TextPosition" x="1927" y="10194"><tspan fill="rgb(0,0,0)" stroke="none">0</tspan></tspan></tspan></text>
 <text class="TextShape"><tspan class="TextParagraph" font-family="Liberation Sans, sans-serif" font-size="353px" font-weight="400"><tspan class="TextPosition" x="1556" y="9713"><tspan fill="rgb(0,0,0)" stroke="none">300</tspan></tspan></tspan></text>
 <text class="TextShape"><tspan class="TextParagraph" font-family="Liberation Sans, sans-serif" font-size="353px" font-weight="400"><tspan class="TextPosition" x="1556" y="9233"><tspan fill="rgb(0,0,0)" stroke="none">600</tspan></tspan></tspan></text>
 <text class="TextShape"><tspan class="TextParagraph" font-family="Liberation Sans, sans-serif" font-size="353px" font-weight="400"><tspan class="TextPosition" x="1556" y="8753"><tspan fill="rgb(0,0,0)" stroke="none">900</tspan></tspan></tspan></text>
 <text class="TextShape"><tspan class="TextParagraph" font-family="Liberation Sans, sans-serif" font-size="353px" font-weight="400"><tspan class="TextPosition" x="1371" y="8273"><tspan fill="rgb(0,0,0)" stroke="none">1200</tspan></tspan></tspan></text>
 <text class="TextShape"><tspan class="TextParagraph" font-family="Liberation Sans, sans-serif" font-size="353px" font-weight="400"><tspan class="TextPosition" x="1371" y="7793"><tspan fill="rgb(0,0,0)" stroke="none">1500</tspan></tspan></tspan></text>
 <text class="TextShape"><tspan class="TextParagraph" font-family="Liberation Sans, sans-serif" font-size="353px" font-weight="400"><tspan class="TextPosition" x="1371" y="7313"><tspan fill="rgb(0,0,0)" stroke="none">1800</tspan></tspan></tspan></text>
 <text class="TextShape"><tspan class="TextParagraph" font-family="Liberation Sans, sans-serif" font-size="353px" font-weight="400"><tspan class="TextPosition" x="1371" y="6833"><tspan fill="rgb(0,0,0)" stroke="none">2100</tspan></tspan></tspan></text>
 <text class="TextShape"><tspan class="TextParagraph" font-family="Liberation Sans, sans-serif" font-size="353px" font-weight="400"><tspan class="TextPosition" x="1371" y="6353"><tspan fill="rgb(0,0,0)" stroke="none">2400</tspan></tspan></tspan></text>
 <text class="TextShape"><tspan class="TextParagraph" font-family="Liberation Sans, sans-serif" font-size="353px" font-weight="400"><tspan class="TextPosition" x="1371" y="5872"><tspan fill="rgb(0,0,0)" stroke="none">2700</tspan></tspan></tspan></text>
 <text class="TextShape"><tspan class="TextParagraph" font-family="Liberation Sans, sans-serif" font-size="353px" font-weight="400"><tspan class="TextPosition" x="1371" y="5392"><tspan fill="rgb(0,0,0)" stroke="none">3000</tspan></tspan></tspan></text>
 <text class="TextShape"><tspan class="TextParagraph" font-family="Liberation Sans, sans-serif" font-size="353px" font-weight="400"><tspan class="TextPosition" x="1371" y="4912"><tspan fill="rgb(0,0,0)" stroke="none">3300</tspan></tspan></tspan></text>
 <text class="TextShape"><tspan class="TextParagraph" font-family="Liberation Sans, sans-serif" font-size="353px" font-weight="400"><tspan class="TextPosition" x="1371" y="4432"><tspan fill="rgb(0,0,0)" stroke="none">3600</tspan></tspan></tspan></text>
 <text class="TextShape"><tspan class="TextParagraph" font-family="Liberation Sans, sans-serif" font-size="353px" font-weight="400"><tspan class="TextPosition" x="1371" y="3952"><tspan fill="rgb(0,0,0)" stroke="none">3900</tspan></tspan></tspan></text>
 <text class="TextShape"><tspan class="TextParagraph" font-family="Liberation Sans, sans-serif" font-size="353px" font-weight="400"><tspan class="TextPosition" x="1371" y="3472"><tspan fill="rgb(0,0,0)" stroke="none">4200</tspan></tspan></tspan></text>
 <text class="TextShape"><tspan class="TextParagraph" font-family="Liberation Sans, sans-serif" font-size="353px" font-weight="400"><tspan class="TextPosition" x="1371" y="2992"><tspan fill="rgb(0,0,0)" stroke="none">4500</tspan></tspan></tspan></text>
 <text class="TextShape"><tspan class="TextParagraph" font-family="Liberation Sans, sans-serif" font-size="353px" font-weight="400"><tspan class="TextPosition" x="1371" y="2512"><tspan fill="rgb(0,0,0)" stroke="none">4800</tspan></tspan></tspan></text>
 <text class="TextShape"><tspan class="TextParagraph" font-family="Liberation Sans, sans-serif" font-size="459px" font-weight="400"><tspan class="TextPosition" x="6823" y="909"><tspan fill="rgb(0,0,0)" stroke="none">Uso de memória RAM</tspan></tspan></tspan></text>
 <text class="TextShape"><tspan class="TextParagraph" font-family="Liberation Sans, sans-serif" font-size="388px" font-weight="400"><tspan class="TextPosition" x="7461" y="1588"><tspan fill="rgb(0,0,0)" stroke="none">Baseado em RSS</tspan></tspan></tspan></text>
 <text class="TextShape"><tspan class="TextParagraph" font-family="Liberation Sans, sans-serif" font-size="318px" font-weight="400"><tspan class="TextPosition" x="8279" y="11346"><tspan fill="rgb(0,0,0)" stroke="none">Tempo decorrido</tspan></tspan></tspan></text>
 <text class="TextShape" transform="rotate(-90 836 7190)"><tspan class="TextParagraph" font-family="Liberation Sans, sans-serif" font-size="318px" font-weight="400"><tspan class="TextPosition" x="836" y="7190"><tspan fill="rgb(0,0,0)" stroke="none">Megabytes</tspan></tspan></tspan></text>
</svg>