<?xml version="1.0" encoding="UTF-8"?>
<!DOCTYPE svg PUBLIC "-//W3C//DTD SVG 1.1//EN" "http://www.w3.org/Graphics/SVG/1.1/DTD/svg11.dtd">
<svg width="180mm" height="119mm" viewBox="0 0 18000 11900" version="1.1" xmlns="http://www.w3.org/2000/svg" xmlns:xlink="http://www.w3.org/1999/xlink" stroke-width="28.222" stroke-linejoin="round" xml:space="preserve">
 <path fill="rgb(255,255,255)" stroke="none" d="M 9006,11943 L 0,11943 0,0 18012,0 18012,11943 9006,11943 Z"/>
 <path fill="none" stroke="rgb(179,179,179)" stroke-linejoin="round" d="M 10005,10074 L 2362,10074 2362,2073 17649,2073 17649,10074 10005,10074 Z"/>
 <path fill="none" stroke="rgb(221,221,221)" stroke-linejoin="round" d="M 2969,2071 L 2969,10073"/>
 <path fill="none" stroke="rgb(221,221,221)" stroke-linejoin="round" d="M 4184,2071 L 4184,10073"/>
 <path fill="none" stroke="rgb(221,221,221)" stroke-linejoin="round" d="M 5399,2071 L 5399,10073"/>
 <path fill="none" stroke="rgb(221,221,221)" stroke-linejoin="round" d="M 6614,2071 L 6614,10073"/>
 <path fill="none" stroke="rgb(221,221,221)" stroke-linejoin="round" d="M 7829,2071 L 7829,10073"/>
 <path fill="none" stroke="rgb(221,221,221)" stroke-linejoin="round" d="M 9043,2071 L 9043,10073"/>
 <path fill="none" stroke="rgb(221,221,221)" stroke-linejoin="round" d="M 10258,2071 L 10258,10073"/>
 <path fill="none" stroke="rgb(221,221,221)" stroke-linejoin="round" d="M 11473,2071 L 11473,10073"/>
 <path fill="none" stroke="rgb(221,221,221)" stroke-linejoin="round" d="M 12687,2071 L 12687,10073"/>
 <path fill="none" stroke="rgb(221,221,221)" stroke-linejoin="round" d="M 13902,2071 L 13902,10073"/>
 <path fill="none" stroke="rgb(221,221,221)" stroke-linejoin="round" d="M 15117,2071 L 15117,10073"/>
 <path fill="none" stroke="rgb(221,221,221)" stroke-linejoin="round" d="M 16332,2071 L 16332,10073"/>
 <path fill="none" stroke="rgb(221,221,221)" stroke-linejoin="round" d="M 17547,2071 L 17547,10073"/>
 <path fill="none" stroke="rgb(179,179,179)" stroke-linejoin="round" d="M 17649,10073 L 2362,10073"/>
 <path fill="none" stroke="rgb(179,179,179)" stroke-linejoin="round" d="M 17649,8872 L 2362,8872"/>
 <path fill="none" stroke="rgb(179,179,179)" stroke-linejoin="round" d="M 17649,7672 L 2362,7672"/>
 <path fill="none" stroke="rgb(179,179,179)" stroke-linejoin="round" d="M 17649,6472 L 2362,6472"/>
 <path fill="none" stroke="rgb(179,179,179)" stroke-linejoin="round" d="M 17649,5272 L 2362,5272"/>
 <path fill="none" stroke="rgb(179,179,179)" stroke-linejoin="round" d="M 17649,4072 L 2362,4072"/>
 <path fill="none" stroke="rgb(179,179,179)" stroke-linejoin="round" d="M 17649,2872 L 2362,2872"/>
 <path fill="none" stroke="rgb(128,0,128)" stroke-width="80" stroke-linejoin="round" d="M 2362,5660 L 2422,5292 2483,5292 2544,5588 2604,5292 2665,5292 2726,5456 2787,5636 2847,5292 2908,5292 2969,5416 3030,5292 3090,5292 3151,5460 3212,5292 3273,5292 3333,5312 3394,5556 3455,5292 3516,5292 3576,5372 3637,5596 3698,5292 3759,5292 3819,5428 3880,5620 3941,5292 4002,5324 4083,5516 4143,5292 4204,5292 4265,5376 4326,5576 4386,5292 4447,5292 4508,5340 4569,5548 4629,5292 4690,5288 4751,5300 4812,5472 4872,5292 4933,5292 4994,5292 5055,5520 5115,5292 5176,5292 5237,5312 5298,5484 5358,5292 5419,5292 5480,5376 5541,5532 5601,5292 5682,5292 5743,5312 5804,5468 5865,5292 5925,5292 5986,5292 6047,5436 6108,5600 6168,5292 6229,5312 6290,5528 6351,5292 6411,5292 6472,5408 6533,5572 6594,5292 6654,5292 6715,5332 6776,5536 6837,5292 6897,5292 6958,5324 7019,5516 7080,5292 7140,5292 7201,5292 7262,5452 7323,5292 7404,5292 7464,5372 7525,5548 7586,5292 7646,5292 7707,5376 7768,5568 7829,5292 7889,5292 7950,5392 8011,5584 8072,5292 8132,5292 8193,5444 8254,5604 8315,5292 8375,5292 8436,5500 8497,5292 8558,5292 8618,5320 8679,5468 8740,5292 8801,5292 8861,5364 8922,5524 8983,5292 9043,5292 9103,5392 9184,5568 9245,5292 9306,5292 9367,5452 9427,5600 9488,5292 9549,5292 9610,5388 9670,5552 9731,5292 9792,5292 9853,5352 9913,5512 9974,5292 10035,5292 10096,5404 10156,5600 10217,5292 10278,5292 10339,5404 10399,5292 10460,5288 10521,5300 10582,5464 10642,5292 10703,5292 10764,5320 10825,5496 10885,5292 10966,5292 11027,5336 11088,5536 11149,5292 11209,5292 11270,5396 11331,5596 11392,5292 11452,5292 11513,5412 11574,5608 11635,5292 11695,5292 11756,5396 11817,5612 11878,5292 11938,5292 11999,5392 12060,5580 12121,5292 12181,5292 12242,5396 12303,5556 12364,5292 12424,5292 12485,5360 12546,5528 12606,5292 12667,5292 12728,5364 12809,5508 12870,5292 12930,5292 12991,5316 13052,5472 13113,5608 13173,5292 13234,5292 13295,5444 13356,5612 13416,5292 13477,5292 13538,5444 13599,5612 13659,5292 13720,5292 13781,5396 13842,5564 13902,5292 13963,5292 14024,5376 14085,5584 14145,5292 14206,5292 14267,5388 14328,5564 14388,5292 14449,5292 14510,5320 14591,5476 14652,5292 14712,5292 14773,5304 14834,5492 14895,5292 14955,5292 15016,5312 15077,5504 15138,5292 15198,5292 15259,5300 15320,5468 15381,5616 15441,5292 15502,5292 15563,5400 15624,5560 15684,5292 15745,5292 15806,5420 15867,5596 15927,5292 15988,5292 16049,5448 16110,5612 16170,5292 16231,5292 16292,5428 16373,5292 16434,5292 16494,5292 16555,5432 16616,5616 16677,5292 16737,5292 16798,5436 16859,5292 16920,5292 16980,5292 17041,5432 17102,5588 17163,5292 17223,5292 17284,5392 17345,5528 17406,5292 17466,5312 17527,5464 17588,5620 17648,5624"/>
 <text class="TextShape"><tspan class="TextParagraph" font-family="Liberation Sans, sans-serif" font-size="353px" font-weight="400"><tspan class="TextPosition" x="1938" y="10641"><tspan fill="rgb(0,0,0)" stroke="none">00:00</tspan></tspan></tspan></text>
 <text class="TextShape"><tspan class="TextParagraph" font-family="Liberation Sans, sans-serif" font-size="353px" font-weight="400"><tspan class="TextPosition" x="3152" y="10641"><tspan fill="rgb(0,0,0)" stroke="none">01:00</tspan></tspan></tspan></text>
 <text class="TextShape"><tspan class="TextParagraph" font-family="Liberation Sans, sans-serif" font-size="353px" font-weight="400"><tspan class="TextPosition" x="4367" y="10641"><tspan fill="rgb(0,0,0)" stroke="none">02:00</tspan></tspan></tspan></text>
 <text class="TextShape"><tspan class="TextParagraph" font-family="Liberation Sans, sans-serif" font-size="353px" font-weight="400"><tspan class="TextPosition" x="5582" y="10641"><tspan fill="rgb(0,0,0)" stroke="none">03:00</tspan></tspan></tspan></text>
 <text class="TextShape"><tspan class="TextParagraph" font-family="Liberation Sans, sans-serif" font-size="353px" font-weight="400"><tspan class="TextPosition" x="6797" y="10641"><tspan fill="rgb(0,0,0)" stroke="none">04:00</tspan></tspan></tspan></text>
 <text class="TextShape"><tspan class="TextParagraph" font-family="Liberation Sans, sans-serif" font-size="353px" font-weight="400"><tspan class="TextPosition" x="8012" y="10641"><tspan fill="rgb(0,0,0)" stroke="none">05:00</tspan></tspan></tspan></text>
 <text class="TextShape"><tspan class="TextParagraph" font-family="Liberation Sans, sans-serif" font-size="353px" font-weight="400"><tspan class="TextPosition" x="9227" y="10641"><tspan fill="rgb(0,0,0)" stroke="none">06:00</tspan></tspan></tspan></text>
 <text class="TextShape"><tspan class="TextParagraph" font-family="Liberation Sans, sans-serif" font-size="353px" font-weight="400"><tspan class="TextPosition" x="10442" y="10641"><tspan fill="rgb(0,0,0)" stroke="none">07:00</tspan></tspan></tspan></text>
 <text class="TextShape"><tspan class="TextParagraph" font-family="Liberation Sans, sans-serif" font-size="353px" font-weight="400"><tspan class="TextPosition" x="11657" y="10641"><tspan fill="rgb(0,0,0)" stroke="none">08:00</tspan></tspan></tspan></text>
 <text class="TextShape"><tspan class="TextParagraph" font-family="Liberation Sans, sans-serif" font-size="353px" font-weight="400"><tspan class="TextPosition" x="12872" y="10641"><tspan fill="rgb(0,0,0)" stroke="none">09:00</tspan></tspan></tspan></text>
 <text class="TextShape"><tspan class="TextParagraph" font-family="Liberation Sans, sans-serif" font-size="353px" font-weight="400"><tspan class="TextPosition" x="14087" y="10641"><tspan fill="rgb(0,0,0)" stroke="none">10:00</tspan></tspan></tspan></text>
 <text class="TextShape"><tspan class="TextParagraph" font-family="Liberation Sans, sans-serif" font-size="353px" font-weight="400"><tspan class="TextPosition" x="15302" y="10641"><tspan fill="rgb(0,0,0)" stroke="none">11:00</tspan></tspan></tspan></text>
 <text class="TextShape"><tspan class="TextParagraph" font-family="Liberation Sans, sans-serif" font-size="353px" font-weight="400"><tspan class="TextPosition" x="16517" y="10641"><tspan fill="rgb(0,0,0)" stroke="none">12:00</tspan></tspan></tspan></text>
 <text class="TextShape"><tspan class="TextParagraph" font-family="Liberation Sans, sans-serif" font-size="353px" font-weight="400"><tspan class="TextPosition" x="1927" y="10194"><tspan fill="rgb(0,0,0)" stroke="none">0</tspan></tspan></tspan></text>
 <text class="TextShape"><tspan class="TextParagraph" font-family="Liberation Sans, sans-serif" font-size="353px" font-weight="400"><tspan class="TextPosition" x="1556" y="8993"><tspan fill="rgb(0,0,0)" stroke="none">300</tspan></tspan></tspan></text>
 <text class="TextShape"><tspan class="TextParagraph" font-family="Liberation Sans, sans-serif" font-size="353px" font-weight="400"><tspan class="TextPosition" x="1556" y="7793"><tspan fill="rgb(0,0,0)" stroke="none">600</tspan></tspan></tspan></text>
 <text class="TextShape"><tspan class="TextParagraph" font-family="Liberation Sans, sans-serif" font-size="353px" font-weight="400"><tspan class="TextPosition" x="1556" y="6593"><tspan fill="rgb(0,0,0)" stroke="none">900</tspan></tspan></tspan></text>
 <text class="TextShape"><tspan class="TextParagraph" font-family="Liberation Sans, sans-serif" font-size="353px" font-weight="400"><tspan class="TextPosition" x="1371" y="5392"><tspan fill="rgb(0,0,0)" stroke="none">1200</tspan></tspan></tspan></text>
 <text class="TextShape"><tspan class="TextParagraph" font-family="Liberation Sans, sans-serif" font-size="353px" font-weight="400"><tspan class="TextPosition" x="1371" y="4192"><tspan fill="rgb(0,0,0)" stroke="none">1500</tspan></tspan></tspan></text>
 <text class="TextShape"><tspan class="TextParagraph" font-family="Liberation Sans, sans-serif" font-size="353px" font-weight="400"><tspan class="TextPosition" x="1371" y="2992"><tspan fill="rgb(0,0,0)" stroke="none">1800</tspan></tspan></tspan></text>
 <text class="TextShape"><tspan class="TextParagraph" font-family="Liberation Sans, sans-serif" font-size="459px" font-weight="400"><tspan class="TextPosition" x="6823" y="909"><tspan fill="rgb(0,0,0)" stroke="none">Uso de memória RAM</tspan></tspan></tspan></text>
 <text class="TextShape"><tspan class="TextParagraph" font-family="Liberation Sans, sans-serif" font-size="388px" font-weight="400"><tspan class="TextPosition" x="7463" y="1588"><tspan fill="rgb(0,0,0)" stroke="none">Baseado em RSS</tspan></tspan></tspan></text>
 <text class="TextShape"><tspan class="TextParagraph" font-family="Liberation Sans, sans-serif" font-size="318px" font-weight="400"><tspan class="TextPosition" x="8279" y="11346"><tspan fill="rgb(0,0,0)" stroke="none">Tempo decorrido</tspan></tspan></tspan></text>
 <text class="TextShape" transform="rotate(-90 836 7190)"><tspan class="TextParagraph" font-family="Liberation Sans, sans-serif" font-size="318px" font-weight="400"><tspan class="TextPosition" x="836" y="7190"><tspan fill="rgb(0,0,0)" stroke="none">Megabytes</tspan></tspan></tspan></text>
</svg>