<?xml version="1.0" encoding="UTF-8"?>
<!DOCTYPE svg PUBLIC "-//W3C//DTD SVG 1.1//EN" "http://www.w3.org/Graphics/SVG/1.1/DTD/svg11.dtd">
<svg width="180mm" height="114mm" viewBox="0 0 18000 11400" version="1.1" xmlns="http://www.w3.org/2000/svg" xmlns:xlink="http://www.w3.org/1999/xlink" stroke-width="28.222" stroke-linejoin="round" xml:space="preserve">
 <path fill="rgb(255,255,255)" stroke="none" d="M 9014,11356 L 0,11356 0,0 18027,0 18027,11356 9014,11356 Z"/>
 <path fill="none" stroke="rgb(179,179,179)" stroke-linejoin="round" d="M 9922,9501 L 2178,9501 2178,1568 17667,1568 17667,9501 9922,9501 Z"/>
 <path fill="none" stroke="rgb(221,221,221)" stroke-linejoin="round" d="M 2793,1567 L 2793,9500"/>
 <path fill="none" stroke="rgb(221,221,221)" stroke-linejoin="round" d="M 4024,1567 L 4024,9500"/>
 <path fill="none" stroke="rgb(221,221,221)" stroke-linejoin="round" d="M 5255,1567 L 5255,9500"/>
 <path fill="none" stroke="rgb(221,221,221)" stroke-linejoin="round" d="M 6486,1567 L 6486,9500"/>
 <path fill="none" stroke="rgb(221,221,221)" stroke-linejoin="round" d="M 7717,1567 L 7717,9500"/>
 <path fill="none" stroke="rgb(221,221,221)" stroke-linejoin="round" d="M 8948,1567 L 8948,9500"/>
 <path fill="none" stroke="rgb(221,221,221)" stroke-linejoin="round" d="M 10178,1567 L 10178,9500"/>
 <path fill="none" stroke="rgb(221,221,221)" stroke-linejoin="round" d="M 11409,1567 L 11409,9500"/>
 <path fill="none" stroke="rgb(221,221,221)" stroke-linejoin="round" d="M 12640,1567 L 12640,9500"/>
 <path fill="none" stroke="rgb(221,221,221)" stroke-linejoin="round" d="M 13871,1567 L 13871,9500"/>
 <path fill="none" stroke="rgb(221,221,221)" stroke-linejoin="round" d="M 15102,1567 L 15102,9500"/>
 <path fill="none" stroke="rgb(221,221,221)" stroke-linejoin="round" d="M 16333,1567 L 16333,9500"/>
 <path fill="none" stroke="rgb(221,221,221)" stroke-linejoin="round" d="M 17564,1567 L 17564,9500"/>
 <path fill="none" stroke="rgb(179,179,179)" stroke-linejoin="round" d="M 17667,9500 L 2178,9500"/>
 <path fill="none" stroke="rgb(179,179,179)" stroke-linejoin="round" d="M 17667,9103 L 2178,9103"/>
 <path fill="none" stroke="rgb(179,179,179)" stroke-linejoin="round" d="M 17667,8706 L 2178,8706"/>
 <path fill="none" stroke="rgb(179,179,179)" stroke-linejoin="round" d="M 17667,8309 L 2178,8309"/>
 <path fill="none" stroke="rgb(179,179,179)" stroke-linejoin="round" d="M 17667,7913 L 2178,7913"/>
 <path fill="none" stroke="rgb(179,179,179)" stroke-linejoin="round" d="M 17667,7516 L 2178,7516"/>
 <path fill="none" stroke="rgb(179,179,179)" stroke-linejoin="round" d="M 17667,7119 L 2178,7119"/>
 <path fill="none" stroke="rgb(179,179,179)" stroke-linejoin="round" d="M 17667,6723 L 2178,6723"/>
 <path fill="none" stroke="rgb(179,179,179)" stroke-linejoin="round" d="M 17667,6326 L 2178,6326"/>
 <path fill="none" stroke="rgb(179,179,179)" stroke-linejoin="round" d="M 17667,5929 L 2178,5929"/>
 <path fill="none" stroke="rgb(179,179,179)" stroke-linejoin="round" d="M 17667,5534 L 2178,5534"/>
 <path fill="none" stroke="rgb(179,179,179)" stroke-linejoin="round" d="M 17667,5137 L 2178,5137"/>
 <path fill="none" stroke="rgb(179,179,179)" stroke-linejoin="round" d="M 17667,4740 L 2178,4740"/>
 <path fill="none" stroke="rgb(179,179,179)" stroke-linejoin="round" d="M 17667,4343 L 2178,4343"/>
 <path fill="none" stroke="rgb(179,179,179)" stroke-linejoin="round" d="M 17667,3947 L 2178,3947"/>
 <path fill="none" stroke="rgb(179,179,179)" stroke-linejoin="round" d="M 17667,3550 L 2178,3550"/>
 <path fill="none" stroke="rgb(179,179,179)" stroke-linejoin="round" d="M 17667,3153 L 2178,3153"/>
 <path fill="none" stroke="rgb(179,179,179)" stroke-linejoin="round" d="M 17667,2757 L 2178,2757"/>
 <path fill="none" stroke="rgb(179,179,179)" stroke-linejoin="round" d="M 17667,2360 L 2178,2360"/>
 <path fill="none" stroke="rgb(179,179,179)" stroke-linejoin="round" d="M 17667,1963 L 2178,1963"/>
 <path fill="none" stroke="rgb(179,179,179)" stroke-linejoin="round" d="M 17667,1567 L 2178,1567"/>
 <path fill="none" stroke="rgb(179,179,179)" stroke-linejoin="round" d="M 2028,9500 L 2178,9500"/>
 <path fill="none" stroke="rgb(179,179,179)" stroke-linejoin="round" d="M 2028,9500 L 2178,9500"/>
 <path fill="none" stroke="rgb(179,179,179)" stroke-linejoin="round" d="M 2028,9103 L 2178,9103"/>
 <path fill="none" stroke="rgb(179,179,179)" stroke-linejoin="round" d="M 2028,9103 L 2178,9103"/>
 <path fill="none" stroke="rgb(179,179,179)" stroke-linejoin="round" d="M 2028,8706 L 2178,8706"/>
 <path fill="none" stroke="rgb(179,179,179)" stroke-linejoin="round" d="M 2028,8706 L 2178,8706"/>
 <path fill="none" stroke="rgb(179,179,179)" stroke-linejoin="round" d="M 2028,8309 L 2178,8309"/>
 <path fill="none" stroke="rgb(179,179,179)" stroke-linejoin="round" d="M 2028,8309 L 2178,8309"/>
 <path fill="none" stroke="rgb(179,179,179)" stroke-linejoin="round" d="M 2028,7913 L 2178,7913"/>
 <path fill="none" stroke="rgb(179,179,179)" stroke-linejoin="round" d="M 2028,7913 L 2178,7913"/>
 <path fill="none" stroke="rgb(179,179,179)" stroke-linejoin="round" d="M 2028,7516 L 2178,7516"/>
 <path fill="none" stroke="rgb(179,179,179)" stroke-linejoin="round" d="M 2028,7516 L 2178,7516"/>
 <path fill="none" stroke="rgb(179,179,179)" stroke-linejoin="round" d="M 2028,7119 L 2178,7119"/>
 <path fill="none" stroke="rgb(179,179,179)" stroke-linejoin="round" d="M 2028,7119 L 2178,7119"/>
 <path fill="none" stroke="rgb(179,179,179)" stroke-linejoin="round" d="M 2028,6723 L 2178,6723"/>
 <path fill="none" stroke="rgb(179,179,179)" stroke-linejoin="round" d="M 2028,6723 L 2178,6723"/>
 <path fill="none" stroke="rgb(179,179,179)" stroke-linejoin="round" d="M 2028,6326 L 2178,6326"/>
 <path fill="none" stroke="rgb(179,179,179)" stroke-linejoin="round" d="M 2028,6326 L 2178,6326"/>
 <path fill="none" stroke="rgb(179,179,179)" stroke-linejoin="round" d="M 2028,5929 L 2178,5929"/>
 <path fill="none" stroke="rgb(179,179,179)" stroke-linejoin="round" d="M 2028,5929 L 2178,5929"/>
 <path fill="none" stroke="rgb(179,179,179)" stroke-linejoin="round" d="M 2028,5534 L 2178,5534"/>
 <path fill="none" stroke="rgb(179,179,179)" stroke-linejoin="round" d="M 2028,5534 L 2178,5534"/>
 <path fill="none" stroke="rgb(179,179,179)" stroke-linejoin="round" d="M 2028,5137 L 2178,5137"/>
 <path fill="none" stroke="rgb(179,179,179)" stroke-linejoin="round" d="M 2028,5137 L 2178,5137"/>
 <path fill="none" stroke="rgb(179,179,179)" stroke-linejoin="round" d="M 2028,4740 L 2178,4740"/>
 <path fill="none" stroke="rgb(179,179,179)" stroke-linejoin="round" d="M 2028,4740 L 2178,4740"/>
 <path fill="none" stroke="rgb(179,179,179)" stroke-linejoin="round" d="M 2028,4343 L 2178,4343"/>
 <path fill="none" stroke="rgb(179,179,179)" stroke-linejoin="round" d="M 2028,4343 L 2178,4343"/>
 <path fill="none" stroke="rgb(179,179,179)" stroke-linejoin="round" d="M 2028,3947 L 2178,3947"/>
 <path fill="none" stroke="rgb(179,179,179)" stroke-linejoin="round" d="M 2028,3947 L 2178,3947"/>
 <path fill="none" stroke="rgb(179,179,179)" stroke-linejoin="round" d="M 2028,3550 L 2178,3550"/>
 <path fill="none" stroke="rgb(179,179,179)" stroke-linejoin="round" d="M 2028,3550 L 2178,3550"/>
 <path fill="none" stroke="rgb(179,179,179)" stroke-linejoin="round" d="M 2028,3153 L 2178,3153"/>
 <path fill="none" stroke="rgb(179,179,179)" stroke-linejoin="round" d="M 2028,3153 L 2178,3153"/>
 <path fill="none" stroke="rgb(179,179,179)" stroke-linejoin="round" d="M 2028,2757 L 2178,2757"/>
 <path fill="none" stroke="rgb(179,179,179)" stroke-linejoin="round" d="M 2028,2757 L 2178,2757"/>
 <path fill="none" stroke="rgb(179,179,179)" stroke-linejoin="round" d="M 2028,2360 L 2178,2360"/>
 <path fill="none" stroke="rgb(179,179,179)" stroke-linejoin="round" d="M 2028,2360 L 2178,2360"/>
 <path fill="none" stroke="rgb(179,179,179)" stroke-linejoin="round" d="M 2028,1963 L 2178,1963"/>
 <path fill="none" stroke="rgb(179,179,179)" stroke-linejoin="round" d="M 2028,1963 L 2178,1963"/>
 <path fill="none" stroke="rgb(179,179,179)" stroke-linejoin="round" d="M 2028,1567 L 2178,1567"/>
 <path fill="none" stroke="rgb(179,179,179)" stroke-linejoin="round" d="M 2028,1567 L 2178,1567"/>
 <path fill="none" stroke="rgb(179,179,179)" stroke-linejoin="round" d="M 2178,9500 L 2178,1567"/>
 <path fill="none" stroke="rgb(0,69,134)" stroke-width="80" stroke-linejoin="round" d="M 2178,2241 L 2181,2228 2184,2215 2187,2203 2190,2192 2193,2183 2196,2174 2199,2168 2205,2162 2211,2167 2214,2174 2218,2185 2221,2200 2224,2220 2227,2244 2230,2272 2233,2307 2236,2346 2239,2392 2242,2443 2245,2500 2248,2563 2251,2630 2254,2701 2258,2776 2261,2854 2264,2936 2267,3019 2270,3104 2273,3191 2276,3279 2279,3367 2282,3455 2285,3542 2288,3629 2291,3714 2294,3796 2298,3877 2301,3955 2304,4029 2307,4100 2310,4167 2313,4232 2316,4293 2319,4350 2322,4404 2325,4456 2328,4503 2331,4548 2334,4589 2338,4627 2341,4662 2344,4694 2347,4723 2350,4748 2353,4771 2356,4790 2359,4806 2362,4819 2365,4830 2368,4837 2371,4841 2378,4843 2384,4835 2387,4828 2390,4820 2393,4809 2396,4797 2399,4784 2402,4769 2405,4754 2408,4737 2411,4720 2414,4701 2418,4683 2421,4664 2424,4645 2427,4626 2430,4607 2433,4588 2436,4569 2439,4550 2442,4531 2445,4513 2448,4496 2451,4478 2454,4462 2458,4445 2461,4430 2464,4415 2467,4401 2470,4387 2473,4375 2476,4364 2479,4353 2482,4344 2485,4335 2488,4328 2491,4322 2494,4318 2498,4314 2504,4309 2513,4307 2522,4311 2528,4316 2531,4319 2534,4322 2541,4328 2547,4335 2550,4339 2556,4345 2559,4348 2562,4351 2565,4354 2568,4356 2574,4361 2578,4362 2584,4365 2593,4366 2602,4363 2608,4359 2611,4356 2615,4353 2621,4345 2624,4341 2627,4335 2630,4330 2633,4324 2636,4318 2639,4311 2642,4304 2645,4297 2648,4290 2651,4282 2655,4274 2658,4266 2661,4258 2664,4250 2667,4241 2670,4232 2673,4224 2676,4215 2679,4206 2682,4197 2685,4188 2688,4179 2691,4170 2695,4161 2698,4153 2701,4144 2704,4136 2707,4128 2710,4120 2713,4112 2716,4105 2719,4098 2722,4091 2725,4085 2728,4079 2731,4074 2735,4069 2738,4064 2744,4056 2747,4053 2753,4048 2756,4046 2765,4044 2775,4047 2778,4048 2784,4054 2787,4057 2790,4061 2793,4066 2799,4076 2802,4082 2805,4089 2808,4095 2811,4102 2815,4109 2818,4115 2821,4122 2824,4129 2827,4135 2830,4141 2833,4147 2836,4152 2839,4157 2845,4164 2851,4168 2855,4169 2861,4167 2864,4165 2870,4159 2873,4156 2879,4147 2882,4142 2885,4137 2888,4131 2891,4126 2895,4121 2898,4116 2901,4112 2904,4108 2907,4104 2910,4101 2913,4099 2919,4097 2928,4099 2931,4102 2938,4108 2941,4111 2947,4120 2950,4125 2953,4130 2956,4135 2959,4140 2962,4145 2968,4155 2971,4160 2975,4165 2978,4169 2981,4173 2984,4176 2987,4180 2990,4183 2993,4185 2999,4189 3002,4191 3008,4193 3018,4194 3027,4192 3033,4189 3036,4187 3042,4182 3045,4179 3048,4176 3052,4173 3055,4169 3058,4166 3061,4162 3064,4158 3067,4154 3070,4149 3073,4145 3076,4141 3079,4136 3082,4132 3085,4127 3088,4123 3092,4118 3095,4114 3098,4110 3104,4101 3107,4097 3110,4094 3116,4087 3122,4080 3125,4078 3128,4075 3135,4071 3144,4066 3147,4065 3153,4064 3162,4066 3172,4070 3175,4073 3181,4078 3187,4084 3190,4088 3193,4092 3196,4096 3199,4100 3205,4109 3208,4113 3212,4118 3215,4123 3221,4132 3224,4137 3227,4142 3230,4147 3233,4152 3236,4156 3242,4165 3245,4170 3248,4174 3252,4178 3255,4182 3258,4185 3261,4188 3264,4191 3270,4196 3273,4198 3279,4200 3288,4200 3298,4196 3301,4194 3307,4189 3313,4183 3316,4179 3319,4176 3322,4172 3325,4169 3328,4165 3332,4161 3335,4158 3338,4154 3341,4151 3344,4148 3350,4142 3356,4138 3359,4136 3365,4133 3368,4132 3378,4129 3387,4129 3396,4131 3402,4134 3405,4135 3415,4141 3421,4146 3424,4149 3427,4151 3433,4157 3439,4163 3442,4165 3445,4168 3452,4173 3461,4180 3467,4183 3470,4185 3476,4187 3485,4187 3495,4186 3498,4185 3504,4182 3510,4179 3513,4177 3519,4172 3522,4169 3525,4167 3532,4161 3538,4155 3541,4151 3544,4148 3547,4145 3550,4141 3553,4138 3559,4131 3562,4128 3569,4122 3575,4116 3578,4114 3584,4110 3587,4108 3593,4105 3596,4105 3602,4104 3612,4106 3621,4109 3627,4112 3630,4114 3636,4117 3639,4119 3645,4123 3649,4125 3655,4129 3658,4131 3664,4134 3667,4136 3676,4140 3685,4144 3691,4145 3695,4146 3704,4146 3713,4146 3719,4144 3729,4141 3735,4138 3738,4136 3744,4132 3748,4130 3754,4126 3757,4124 3760,4121 3766,4116 3772,4111 3775,4108 3781,4103 3784,4100 3786,4097 3792,4092 3798,4086 3801,4084 3804,4082 3809,4077 3813,4075 3819,4071 3822,4070 3829,4068 3839,4066 3847,4066 3855,4067 3868,4070 3876,4072 3885,4075 3889,4077 3893,4079 3902,4082 3906,4084 3910,4085 3918,4088 3921,4090 3929,4092 3939,4094 3945,4095 3954,4096 3963,4095 3972,4093 3974,4093 3983,4090 3989,4087 3992,4085 3998,4082 4001,4081 4010,4075 4019,4070 4029,4065 4035,4062 4041,4059 4045,4058 4054,4055 4060,4054 4063,4053 4072,4052 4082,4052 4091,4054 4094,4054 4100,4056 4109,4059 4112,4060 4118,4063 4124,4066 4128,4067 4137,4071 4146,4075 4152,4078 4161,4080 4171,4082 4180,4082 4189,4081 4198,4078 4205,4076 4208,4075 4217,4071 4220,4070 4226,4067 4232,4064 4235,4063 4241,4060 4245,4058 4254,4053 4263,4048 4272,4043 4275,4042 4278,4040 4288,4036 4297,4031 4306,4027 4309,4025 4315,4023 4325,4020 4328,4019 4334,4018 4343,4017 4352,4018 4361,4020 4371,4024 4377,4027 4380,4028 4389,4032 4398,4037 4401,4038 4405,4039 4414,4042 4420,4043 4423,4043 4432,4044 4442,4043 4445,4042 4451,4041 4460,4039 4466,4037 4469,4036 4478,4033 4485,4031 4488,4030 4497,4027 4500,4025 4506,4023 4515,4019 4525,4016 4531,4013 4534,4012 4540,4009 4543,4007 4549,4004 4552,4003 4558,4000 4565,3997 4568,3996 4577,3992 4580,3991 4586,3989 4595,3987 4605,3986 4614,3986 4620,3986 4623,3986 4632,3988 4642,3990 4651,3992 4660,3994 4666,3996 4672,3997 4675,3998 4685,4000 4694,4002 4703,4003 4712,4003 4722,4002 4731,4001 4740,3998 4746,3996 4749,3995 4758,3991 4768,3987 4771,3985 4777,3982 4783,3978 4786,3977 4792,3973 4802,3967 4811,3962 4820,3958 4823,3957 4829,3955 4838,3954 4848,3955 4857,3959 4866,3964 4875,3969 4885,3975 4894,3981 4903,3985 4906,3986 4912,3988 4919,3989 4928,3989 4937,3988 4946,3987 4955,3986 4965,3986 4974,3987 4983,3990 4989,3992 4992,3993 5002,3996 5008,3998 5011,3999 5020,4001 5029,4002 5039,4002 5045,4000 5054,3998 5057,3997 5063,3994 5072,3991 5082,3988 5091,3986 5097,3986 5100,3986 5109,3986 5119,3987 5128,3989 5137,3991 5140,3992 5146,3993 5155,3995 5165,3996 5171,3997 5174,3998 5180,3998 5189,3998 5199,3997 5202,3997 5208,3996 5217,3993 5223,3991 5226,3990 5236,3986 5239,3985 5245,3982 5251,3979 5254,3978 5263,3974 5272,3971 5282,3969 5288,3969 5291,3968 5300,3968 5309,3968 5315,3969 5325,3970 5334,3970 5343,3971 5353,3971 5362,3971 5371,3971 5381,3971 5390,3970 5399,3971 5407,3971 5416,3971 5424,3971 5433,3972 5443,3972 5453,3971 5460,3971 5472,3969 5476,3969 5480,3968 5488,3967 5497,3965 5505,3963 5510,3963 5514,3962 5527,3959 5535,3957 5542,3955 5553,3951 5560,3949 5569,3946 5572,3945 5578,3944 5587,3941 5592,3940 5595,3940 5604,3939 5616,3939 5625,3939 5631,3940 5634,3941 5640,3942 5650,3943 5659,3945 5665,3947 5668,3947 5678,3949 5687,3951 5693,3952 5696,3953 5705,3954 5715,3955 5724,3955 5730,3954 5739,3954 5748,3952 5751,3951 5758,3950 5767,3947 5770,3946 5776,3944 5785,3940 5795,3936 5798,3935 5804,3932 5810,3929 5813,3927 5822,3923 5832,3919 5838,3918 5841,3917 5850,3915 5859,3914 5865,3915 5875,3916 5884,3917 5887,3918 5893,3919 5902,3921 5912,3923 5918,3924 5921,3924 5930,3925 5939,3925 5948,3925 5958,3924 5967,3923 5976,3923 5985,3922 5992,3921 6001,3920 6010,3919 6019,3918 6028,3916 6038,3914 6047,3912 6050,3912 6056,3911 6065,3909 6075,3907 6084,3907 6093,3907 6102,3908 6112,3910 6118,3911 6121,3912 6127,3914 6136,3917 6139,3918 6145,3920 6155,3922 6161,3924 6164,3924 6173,3925 6182,3926 6192,3926 6201,3926 6210,3925 6219,3923 6228,3921 6238,3918 6241,3917 6244,3917 6253,3914 6262,3911 6272,3909 6281,3907 6287,3906 6290,3906 6299,3905 6309,3905 6318,3905 6327,3905 6336,3906 6339,3907 6345,3907 6355,3909 6364,3910 6373,3912 6376,3912 6379,3913 6389,3914 6398,3915 6407,3915 6416,3915 6425,3915 6435,3914 6444,3912 6447,3912 6453,3910 6462,3908 6469,3906 6472,3905 6481,3902 6487,3900 6490,3899 6499,3896 6502,3895 6505,3894 6515,3892 6524,3891 6533,3891 6542,3893 6552,3895 6561,3898 6570,3901 6579,3904 6589,3907 6598,3909 6607,3911 6616,3912 6625,3913 6632,3914 6641,3914 6650,3915 6659,3916 6669,3916 6678,3916 6687,3917 6696,3916 6706,3916 6715,3914 6724,3913 6727,3912 6733,3910 6742,3908 6749,3906 6752,3905 6758,3903 6767,3901 6770,3900 6776,3898 6786,3896 6792,3895 6795,3894 6804,3893 6813,3892 6822,3891 6832,3891 6841,3892 6850,3892 6859,3894 6869,3895 6878,3897 6887,3898 6893,3899 6902,3900 6912,3900 6921,3900 6930,3900 6939,3900 6949,3900 6958,3899 6967,3899 6976,3898 6986,3897 6995,3896 7001,3895 7004,3894 7013,3893 7019,3891 7029,3889 7038,3886 7047,3883 7056,3880 7065,3878 7075,3876 7084,3875 7093,3875 7103,3875 7112,3877 7118,3878 7122,3878 7128,3880 7137,3882 7145,3884 7148,3885 7157,3887 7165,3889 7168,3889 7174,3890 7183,3891 7193,3892 7200,3891 7212,3890 7220,3889 7228,3887 7237,3886 7245,3884 7249,3883 7258,3881 7266,3879 7274,3877 7282,3876 7290,3875 7300,3874 7310,3873 7319,3874 7328,3874 7336,3875 7345,3875 7354,3875 7363,3876 7372,3876 7381,3876 7390,3875 7400,3875 7409,3875 7419,3875 7428,3876 7437,3876 7443,3876 7452,3876 7462,3876 7471,3875 7480,3874 7489,3873 7498,3872 7508,3871 7517,3869 7526,3868 7535,3867 7542,3867 7545,3866 7554,3866 7563,3866 7569,3866 7578,3866 7585,3867 7588,3867 7597,3868 7606,3869 7615,3870 7625,3871 7634,3872 7643,3874 7652,3875 7662,3876 7671,3877 7680,3878 7689,3878 7699,3878 7705,3877 7714,3876 7723,3874 7729,3872 7732,3871 7742,3869 7748,3867 7751,3866 7760,3863 7769,3861 7779,3859 7788,3859 7797,3859 7806,3860 7809,3861 7815,3862 7825,3864 7831,3865 7837,3867 7840,3867 7849,3869 7859,3871 7868,3872 7877,3874 7886,3875 7895,3875 7905,3875 7914,3875 7923,3875 7932,3874 7942,3872 7951,3870 7957,3869 7966,3866 7975,3864 7985,3861 7994,3858 8003,3855 8006,3855 8012,3853 8022,3852 8031,3851 8040,3851 8049,3852 8059,3854 8068,3855 8077,3857 8083,3859 8092,3861 8096,3861 8102,3863 8111,3864 8120,3865 8129,3866 8132,3867 8139,3867 8148,3867 8157,3867 8166,3867 8176,3866 8185,3864 8194,3863 8203,3861 8212,3859 8219,3857 8228,3855 8231,3855 8237,3853 8246,3852 8256,3851 8265,3851 8274,3852 8283,3854 8292,3856 8302,3859 8311,3862 8320,3865 8329,3867 8339,3868 8345,3869 8354,3869 8363,3869 8372,3869 8382,3868 8391,3868 8400,3867 8409,3867 8419,3867 8428,3867 8437,3867 8446,3867 8456,3867 8465,3868 8471,3868 8480,3868 8489,3868 8499,3868 8508,3868 8517,3867 8526,3867 8536,3867 8539,3867 8545,3866 8554,3866 8563,3866 8569,3867 8573,3867 8582,3868 8591,3869 8597,3870 8606,3872 8613,3873 8616,3873 8625,3874 8634,3875 8643,3875 8653,3875 8662,3874 8671,3872 8680,3871 8689,3869 8699,3868 8708,3867 8714,3867 8717,3866 8726,3866 8733,3866 8742,3867 8751,3867 8760,3867 8769,3867 8779,3868 8788,3867 8797,3867 8806,3867 8816,3867 8825,3867 8834,3868 8843,3868 8852,3868 8862,3868 8868,3868 8877,3868 8886,3867 8896,3866 8905,3865 8915,3864 8924,3863 8933,3861 8936,3861 8942,3860 8951,3859 8959,3858 8968,3858 8977,3858 8986,3858 8995,3859 9006,3859 9013,3860 9020,3860 9028,3861 9033,3861 9041,3862 9050,3863 9058,3864 9067,3865 9075,3866 9087,3867 9094,3868 9101,3868 9111,3869 9120,3870 9129,3870 9138,3870 9146,3868 9158,3866 9167,3863 9176,3860 9182,3858 9192,3856 9195,3855 9201,3853 9211,3852 9220,3851 9229,3852 9238,3853 9248,3855 9254,3856 9257,3856 9266,3858 9275,3859 9281,3860 9291,3860 9300,3860 9309,3860 9318,3860 9328,3859 9337,3859 9346,3860 9355,3860 9364,3861 9371,3861 9374,3861 9383,3861 9386,3861 9392,3860 9401,3859 9411,3857 9417,3855 9426,3852 9435,3849 9444,3846 9454,3844 9457,3844 9463,3843 9472,3843 9478,3844 9481,3844 9491,3846 9500,3848 9509,3850 9512,3850 9518,3851 9528,3852 9537,3853 9543,3853 9552,3853 9561,3852 9571,3852 9580,3852 9589,3851 9598,3852 9608,3852 9617,3852 9626,3852 9635,3852 9645,3851 9654,3851 9663,3849 9669,3849 9678,3847 9688,3846 9697,3845 9703,3844 9706,3844 9715,3843 9725,3843 9734,3843 9743,3843 9752,3843 9761,3843 9771,3844 9780,3844 9789,3844 9795,3844 9805,3843 9814,3843 9823,3843 9832,3844 9841,3844 9851,3844 9860,3845 9869,3845 9878,3844 9888,3844 9897,3843 9906,3841 9915,3840 9925,3838 9928,3838 9931,3837 9940,3836 9949,3836 9958,3836 9968,3837 9977,3838 9980,3838 9986,3839 9995,3841 10005,3842 10014,3844 10020,3844 10023,3844 10032,3844 10042,3844 10051,3844 10057,3844 10066,3844 10075,3844 10085,3844 10091,3844 10094,3844 10103,3844 10112,3845 10122,3845 10131,3844 10134,3844 10140,3843 10149,3842 10158,3840 10168,3838 10171,3838 10177,3837 10183,3836 10192,3836 10202,3836 10211,3837 10217,3838 10220,3839 10229,3842 10238,3845 10248,3848 10254,3850 10257,3851 10266,3853 10275,3855 10285,3857 10294,3858 10303,3859 10309,3859 10318,3859 10328,3859 10337,3858 10346,3857 10355,3856 10362,3855 10365,3855 10374,3853 10383,3851 10392,3850 10395,3850 10402,3849 10411,3847 10420,3846 10429,3845 10435,3844 10442,3844 10445,3844 10454,3843 10463,3842 10472,3842 10482,3842 10491,3842 10500,3843 10509,3844 10519,3845 10528,3847 10537,3848 10546,3850 10555,3851 10565,3851 10571,3852 10580,3851 10589,3850 10599,3849 10608,3848 10617,3846 10626,3844 10629,3844 10635,3842 10645,3840 10654,3839 10660,3838 10663,3837 10672,3836 10682,3836 10691,3836 10697,3836 10707,3837 10716,3838 10719,3838 10725,3839 10735,3841 10744,3842 10752,3844 10758,3844 10761,3844 10770,3845 10778,3845 10787,3845 10797,3845 10807,3844 10810,3844 10818,3843 10826,3843 10834,3842 10842,3841 10851,3840 10859,3839 10872,3838 10880,3837 10888,3836 10896,3836 10907,3835 10913,3834 10923,3834 10932,3834 10940,3834 10952,3835 10961,3836 10969,3837 10975,3838 10979,3839 10988,3840 10997,3842 11007,3843 11013,3843 11022,3844 11032,3843 11041,3842 11050,3841 11059,3840 11068,3838 11078,3836 11087,3834 11096,3833 11099,3832 11105,3831 11115,3830 11124,3829 11130,3828 11139,3828 11148,3828 11158,3828 11167,3829 11176,3831 11185,3832 11188,3833 11195,3834 11204,3836 11213,3837 11219,3839 11222,3839 11231,3841 11241,3842 11250,3843 11256,3843 11265,3844 11275,3843 11284,3842 11293,3841 11302,3840 11311,3838 11315,3838 11321,3837 11330,3835 11339,3834 11348,3832 11358,3831 11367,3830 11376,3829 11382,3828 11392,3827 11401,3827 11410,3826 11419,3826 11428,3826 11438,3827 11444,3827 11447,3827 11456,3828 11465,3830 11475,3831 11484,3833 11493,3834 11502,3835 11508,3836 11518,3836 11527,3835 11536,3834 11545,3833 11548,3832 11555,3831 11564,3829 11573,3828 11579,3827 11582,3826 11592,3825 11601,3823 11610,3822 11619,3821 11628,3820 11635,3820 11644,3819 11653,3819 11662,3819 11672,3819 11681,3819 11690,3819 11699,3820 11708,3821 11712,3821 11718,3822 11727,3824 11736,3825 11745,3826 11752,3827 11755,3827 11764,3828 11770,3829 11779,3829 11789,3829 11798,3829 11807,3829 11816,3828 11825,3827 11829,3827 11835,3826 11844,3824 11853,3823 11862,3822 11869,3821 11872,3821 11881,3820 11890,3819 11896,3819 11905,3819 11915,3820 11924,3820 11933,3820 11942,3820 11952,3819 11961,3819 11970,3818 11979,3818 11989,3818 11998,3819 12007,3820 12013,3822 12016,3823 12022,3824 12032,3827 12041,3830 12050,3833 12059,3835 12069,3836 12078,3836 12087,3835 12096,3833 12102,3832 12105,3831 12115,3830 12124,3828 12133,3827 12136,3827 12142,3827 12149,3826 12158,3827 12167,3827 12170,3827 12176,3827 12186,3828 12195,3828 12204,3828 12213,3828 12222,3828 12232,3828 12241,3828 12250,3828 12259,3828 12269,3828 12278,3828 12284,3828 12293,3828 12302,3828 12312,3828 12321,3827 12330,3826 12339,3824 12349,3823 12358,3821 12361,3821 12367,3820 12376,3820 12386,3819 12395,3819 12404,3819 12410,3819 12419,3819 12429,3820 12438,3820 12447,3820 12456,3820 12466,3820 12475,3820 12484,3820 12493,3820 12502,3820 12512,3820 12521,3820 12530,3821 12539,3821 12545,3820 12555,3820 12564,3819 12574,3818 12583,3817 12592,3815 12602,3814 12611,3813 12619,3812 12628,3811 12637,3811 12645,3811 12654,3811 12664,3811 12674,3812 12681,3812 12693,3812 12701,3812 12709,3812 12718,3812 12726,3812 12735,3812 12747,3812 12755,3812 12763,3812 12774,3812 12780,3812 12790,3812 12799,3811 12807,3812 12816,3812 12828,3812 12836,3812 12846,3813 12855,3813 12861,3813 12870,3813 12880,3812 12889,3811 12899,3810 12902,3810 12908,3809 12917,3807 12926,3806 12935,3804 12942,3804 12945,3804 12954,3804 12957,3804 12963,3805 12969,3806 12978,3807 12988,3809 12997,3810 13006,3812 13015,3812 13025,3813 13034,3812 13043,3812 13052,3812 13062,3812 13071,3812 13080,3812 13089,3813 13095,3813 13105,3813 13114,3814 13123,3813 13132,3812 13142,3810 13151,3807 13160,3804 13169,3801 13179,3799 13182,3798 13188,3797 13197,3796 13206,3796 13215,3797 13222,3798 13228,3799 13231,3800 13240,3801 13249,3803 13259,3804 13268,3805 13277,3805 13286,3805 13295,3805 13305,3804 13308,3804 13314,3804 13323,3804 13332,3804 13342,3804 13348,3804 13357,3804 13366,3804 13375,3804 13385,3803 13394,3802 13403,3801 13412,3800 13422,3798 13431,3797 13440,3796 13449,3795 13459,3794 13468,3794 13474,3794 13483,3794 13492,3795 13502,3796 13511,3797 13520,3799 13529,3800 13539,3802 13548,3803 13557,3804 13566,3804 13575,3804 13585,3803 13594,3802 13603,3800 13609,3799 13612,3798 13619,3797 13628,3795 13637,3793 13643,3792 13646,3792 13656,3790 13665,3789 13674,3788 13683,3788 13692,3788 13702,3789 13711,3791 13720,3792 13726,3793 13729,3794 13736,3795 13745,3796 13754,3796 13763,3796 13772,3796 13782,3796 13791,3796 13800,3796 13809,3796 13819,3797 13828,3798 13834,3798 13837,3799 13846,3800 13856,3802 13862,3803 13871,3804 13874,3804 13880,3805 13889,3805 13899,3806 13908,3806 13917,3805 13926,3805 13932,3804 13936,3803 13945,3802 13954,3801 13963,3799 13966,3798 13972,3798 13982,3797 13988,3796 13997,3796 14006,3797 14016,3798 14022,3798 14025,3799 14034,3801 14043,3802 14053,3803 14059,3804 14062,3805 14071,3805 14080,3806 14089,3806 14099,3805 14108,3805 14117,3804 14123,3803 14133,3802 14142,3801 14151,3799 14157,3798 14160,3798 14169,3797 14179,3796 14188,3795 14197,3795 14206,3795 14216,3795 14225,3796 14234,3796 14243,3796 14249,3796 14259,3796 14268,3796 14277,3796 14286,3796 14296,3796 14305,3796 14314,3796 14323,3796 14332,3796 14342,3796 14351,3796 14360,3796 14370,3796 14376,3796 14385,3796 14395,3796 14404,3796 14413,3796 14422,3796 14431,3796 14439,3796 14448,3796 14460,3796 14466,3796 14476,3796 14486,3796 14494,3796 14502,3796 14515,3796 14523,3796 14532,3796 14540,3796 14549,3796 14557,3796 14568,3796 14576,3796 14586,3796 14592,3797 14601,3797 14610,3797 14621,3797 14630,3796 14639,3795 14648,3794 14657,3792 14667,3791 14676,3790 14682,3789 14692,3788 14701,3788 14710,3787 14719,3787 14729,3788 14738,3788 14747,3788 14756,3788 14765,3788 14775,3787 14784,3787 14793,3787 14796,3787 14802,3787 14809,3788 14818,3788 14827,3790 14836,3791 14845,3793 14849,3793 14855,3794 14864,3795 14873,3796 14882,3796 14892,3795 14901,3794 14910,3792 14919,3791 14929,3789 14935,3788 14944,3787 14953,3787 14962,3787 14972,3787 14975,3787 14981,3787 14990,3788 14999,3788 15009,3788 15018,3788 15027,3788 15036,3788 15046,3788 15055,3788 15061,3788 15070,3788 15079,3788 15089,3788 15098,3788 15107,3788 15116,3788 15126,3788 15135,3788 15144,3789 15153,3789 15162,3789 15172,3789 15181,3788 15187,3788 15193,3787 15196,3786 15206,3785 15215,3783 15224,3782 15227,3781 15233,3781 15242,3780 15252,3780 15261,3781 15264,3781 15270,3782 15279,3784 15289,3785 15298,3787 15301,3787 15307,3788 15313,3789 15322,3789 15332,3789 15341,3789 15350,3788 15359,3788 15369,3788 15378,3788 15387,3788 15396,3788 15406,3789 15415,3789 15424,3788 15433,3788 15443,3787 15449,3786 15458,3785 15467,3783 15476,3782 15479,3781 15486,3781 15495,3780 15504,3779 15513,3779 15523,3779 15532,3779 15541,3780 15550,3780 15559,3780 15569,3780 15575,3780 15584,3780 15593,3780 15603,3780 15612,3780 15621,3780 15630,3780 15639,3780 15649,3780 15658,3780 15667,3780 15676,3780 15686,3780 15695,3780 15701,3779 15710,3779 15719,3779 15729,3780 15738,3780 15747,3781 15753,3782 15756,3782 15766,3784 15775,3785 15784,3786 15790,3787 15793,3787 15803,3788 15812,3789 15821,3789 15827,3789 15836,3788 15846,3788 15855,3788 15864,3788 15873,3788 15883,3789 15892,3789 15901,3789 15910,3789 15920,3788 15929,3787 15932,3787 15938,3786 15947,3784 15956,3783 15963,3782 15966,3781 15972,3781 15981,3780 15990,3780 16000,3781 16006,3782 16009,3782 16018,3784 16027,3785 16036,3787 16040,3787 16046,3788 16055,3789 16064,3789 16073,3789 16083,3789 16089,3788 16098,3788 16107,3788 16116,3788 16126,3788 16135,3788 16144,3789 16153,3789 16163,3788 16172,3788 16181,3787 16191,3786 16197,3785 16206,3783 16215,3782 16222,3781 16224,3781 16233,3780 16245,3779 16253,3779 16262,3779 16271,3779 16281,3779 16288,3780 16300,3781 16308,3781 16316,3782 16324,3783 16333,3784 16341,3785 16354,3786 16362,3787 16366,3787 16370,3788 16378,3788 16388,3789 16398,3790 16407,3790 16416,3790 16424,3789 16433,3788 16441,3787 16444,3787 16450,3786 16460,3784 16469,3783 16478,3781 16488,3780 16497,3780 16506,3780 16513,3781 16516,3781 16522,3782 16531,3784 16540,3785 16549,3787 16552,3787 16559,3788 16568,3789 16577,3789 16586,3789 16596,3789 16605,3788 16614,3788 16623,3788 16632,3788 16642,3788 16648,3788 16657,3789 16666,3789 16676,3788 16685,3788 16694,3787 16703,3786 16712,3784 16722,3783 16731,3782 16734,3781 16740,3780 16749,3779 16759,3779 16768,3778 16774,3778 16783,3778 16792,3779 16802,3780 16811,3781 16817,3782 16820,3782 16829,3784 16839,3786 16848,3787 16851,3787 16857,3788 16866,3788 16876,3788 16882,3787 16885,3787 16894,3785 16900,3784 16909,3783 16919,3781 16928,3780 16937,3779 16946,3779 16956,3779 16965,3779 16974,3780 16983,3780 16993,3780 17002,3780 17011,3780 17020,3780 17026,3780 17036,3780 17045,3780 17054,3780 17063,3780 17073,3780 17082,3780 17091,3780 17100,3780 17109,3780 17119,3780 17128,3780 17137,3780 17146,3780 17156,3780 17162,3780 17171,3780 17180,3780 17189,3780 17199,3780 17208,3780 17217,3780 17226,3780 17236,3780 17245,3780 17254,3780 17263,3780 17273,3780 17282,3780 17288,3780 17297,3780 17306,3780 17316,3780 17325,3780 17334,3780 17343,3780 17353,3780 17362,3780 17371,3780 17380,3780 17390,3780 17399,3780 17408,3780 17414,3780 17423,3780 17433,3780 17442,3780 17451,3779 17460,3779 17470,3780 17479,3780 17488,3781 17497,3781 17506,3783 17516,3784 17525,3785 17534,3787 17540,3788 17550,3789 17559,3790 17568,3791 17577,3793 17580,3793 17586,3794 17596,3795 17605,3796 17614,3797 17623,3798 17626,3799 17633,3799 17642,3801 17651,3802 17660,3803"/>
 <text class="TextShape"><tspan class="TextParagraph" font-family="Liberation Sans, sans-serif" font-size="353px" font-weight="400"><tspan class="TextPosition" x="1754" y="10068"><tspan fill="rgb(0,0,0)" stroke="none">00:00</tspan></tspan></tspan></text>
 <text class="TextShape"><tspan class="TextParagraph" font-family="Liberation Sans, sans-serif" font-size="353px" font-weight="400"><tspan class="TextPosition" x="2984" y="10068"><tspan fill="rgb(0,0,0)" stroke="none">01:00</tspan></tspan></tspan></text>
 <text class="TextShape"><tspan class="TextParagraph" font-family="Liberation Sans, sans-serif" font-size="353px" font-weight="400"><tspan class="TextPosition" x="4215" y="10068"><tspan fill="rgb(0,0,0)" stroke="none">02:00</tspan></tspan></tspan></text>
 <text class="TextShape"><tspan class="TextParagraph" font-family="Liberation Sans, sans-serif" font-size="353px" font-weight="400"><tspan class="TextPosition" x="5446" y="10068"><tspan fill="rgb(0,0,0)" stroke="none">03:00</tspan></tspan></tspan></text>
 <text class="TextShape"><tspan class="TextParagraph" font-family="Liberation Sans, sans-serif" font-size="353px" font-weight="400"><tspan class="TextPosition" x="6677" y="10068"><tspan fill="rgb(0,0,0)" stroke="none">04:00</tspan></tspan></tspan></text>
 <text class="TextShape"><tspan class="TextParagraph" font-family="Liberation Sans, sans-serif" font-size="353px" font-weight="400"><tspan class="TextPosition" x="7908" y="10068"><tspan fill="rgb(0,0,0)" stroke="none">05:00</tspan></tspan></tspan></text>
 <text class="TextShape"><tspan class="TextParagraph" font-family="Liberation Sans, sans-serif" font-size="353px" font-weight="400"><tspan class="TextPosition" x="9139" y="10068"><tspan fill="rgb(0,0,0)" stroke="none">06:00</tspan></tspan></tspan></text>
 <text class="TextShape"><tspan class="TextParagraph" font-family="Liberation Sans, sans-serif" font-size="353px" font-weight="400"><tspan class="TextPosition" x="10370" y="10068"><tspan fill="rgb(0,0,0)" stroke="none">07:00</tspan></tspan></tspan></text>
 <text class="TextShape"><tspan class="TextParagraph" font-family="Liberation Sans, sans-serif" font-size="353px" font-weight="400"><tspan class="TextPosition" x="11601" y="10068"><tspan fill="rgb(0,0,0)" stroke="none">08:00</tspan></tspan></tspan></text>
 <text class="TextShape"><tspan class="TextParagraph" font-family="Liberation Sans, sans-serif" font-size="353px" font-weight="400"><tspan class="TextPosition" x="12832" y="10068"><tspan fill="rgb(0,0,0)" stroke="none">09:00</tspan></tspan></tspan></text>
 <text class="TextShape"><tspan class="TextParagraph" font-family="Liberation Sans, sans-serif" font-size="353px" font-weight="400"><tspan class="TextPosition" x="14063" y="10068"><tspan fill="rgb(0,0,0)" stroke="none">10:00</tspan></tspan></tspan></text>
 <text class="TextShape"><tspan class="TextParagraph" font-family="Liberation Sans, sans-serif" font-size="353px" font-weight="400"><tspan class="TextPosition" x="15294" y="10068"><tspan fill="rgb(0,0,0)" stroke="none">11:00</tspan></tspan></tspan></text>
 <text class="TextShape"><tspan class="TextParagraph" font-family="Liberation Sans, sans-serif" font-size="353px" font-weight="400"><tspan class="TextPosition" x="16525" y="10068"><tspan fill="rgb(0,0,0)" stroke="none">12:00</tspan></tspan></tspan></text>
 <text class="TextShape"><tspan class="TextParagraph" font-family="Liberation Sans, sans-serif" font-size="353px" font-weight="400"><tspan class="TextPosition" x="1743" y="9621"><tspan fill="rgb(0,0,0)" stroke="none">0</tspan></tspan></tspan></text>
 <text class="TextShape"><tspan class="TextParagraph" font-family="Liberation Sans, sans-serif" font-size="353px" font-weight="400"><tspan class="TextPosition" x="1558" y="8827"><tspan fill="rgb(0,0,0)" stroke="none">10</tspan></tspan></tspan></text>
 <text class="TextShape"><tspan class="TextParagraph" font-family="Liberation Sans, sans-serif" font-size="353px" font-weight="400"><tspan class="TextPosition" x="1558" y="8034"><tspan fill="rgb(0,0,0)" stroke="none">20</tspan></tspan></tspan></text>
 <text class="TextShape"><tspan class="TextParagraph" font-family="Liberation Sans, sans-serif" font-size="353px" font-weight="400"><tspan class="TextPosition" x="1558" y="7240"><tspan fill="rgb(0,0,0)" stroke="none">30</tspan></tspan></tspan></text>
 <text class="TextShape"><tspan class="TextParagraph" font-family="Liberation Sans, sans-serif" font-size="353px" font-weight="400"><tspan class="TextPosition" x="1558" y="6447"><tspan fill="rgb(0,0,0)" stroke="none">40</tspan></tspan></tspan></text>
 <text class="TextShape"><tspan class="TextParagraph" font-family="Liberation Sans, sans-serif" font-size="353px" font-weight="400"><tspan class="TextPosition" x="1558" y="5654"><tspan fill="rgb(0,0,0)" stroke="none">50</tspan></tspan></tspan></text>
 <text class="TextShape"><tspan class="TextParagraph" font-family="Liberation Sans, sans-serif" font-size="353px" font-weight="400"><tspan class="TextPosition" x="1558" y="4860"><tspan fill="rgb(0,0,0)" stroke="none">60</tspan></tspan></tspan></text>
 <text class="TextShape"><tspan class="TextParagraph" font-family="Liberation Sans, sans-serif" font-size="353px" font-weight="400"><tspan class="TextPosition" x="1558" y="4067"><tspan fill="rgb(0,0,0)" stroke="none">70</tspan></tspan></tspan></text>
 <text class="TextShape"><tspan class="TextParagraph" font-family="Liberation Sans, sans-serif" font-size="353px" font-weight="400"><tspan class="TextPosition" x="1558" y="3273"><tspan fill="rgb(0,0,0)" stroke="none">80</tspan></tspan></tspan></text>
 <text class="TextShape"><tspan class="TextParagraph" font-family="Liberation Sans, sans-serif" font-size="353px" font-weight="400"><tspan class="TextPosition" x="1558" y="2480"><tspan fill="rgb(0,0,0)" stroke="none">90</tspan></tspan></tspan></text>
 <text class="TextShape"><tspan class="TextParagraph" font-family="Liberation Sans, sans-serif" font-size="353px" font-weight="400"><tspan class="TextPosition" x="1372" y="1687"><tspan fill="rgb(0,0,0)" stroke="none">100</tspan></tspan></tspan></text>
 <text class="TextShape"><tspan class="TextParagraph" font-family="Liberation Sans, sans-serif" font-size="459px" font-weight="400"><tspan class="TextPosition" x="7783" y="898"><tspan fill="rgb(0,0,0)" stroke="none">Uso de CPU</tspan></tspan></tspan></text>
 <text class="TextShape"><tspan class="TextParagraph" font-family="Liberation Sans, sans-serif" font-size="318px" font-weight="400"><tspan class="TextPosition" x="8288" y="10762"><tspan fill="rgb(0,0,0)" stroke="none">Tempo decorrido</tspan></tspan></tspan></text>
 <text class="TextShape" transform="rotate(-90 837 8126)"><tspan class="TextParagraph" font-family="Liberation Sans, sans-serif" font-size="318px" font-weight="400"><tspan class="TextPosition" x="837" y="8126"><tspan fill="rgb(0,0,0)" stroke="none">Percentual de uso pelo processo</tspan></tspan></tspan></text>
</svg>