<?xml version="1.0" encoding="UTF-8"?>
<!DOCTYPE svg PUBLIC "-//W3C//DTD SVG 1.1//EN" "http://www.w3.org/Graphics/SVG/1.1/DTD/svg11.dtd">
<svg width="160mm" height="90mm" viewBox="0 0 16000 9000" version="1.1" xmlns="http://www.w3.org/2000/svg" xmlns:xlink="http://www.w3.org/1999/xlink" stroke-width="28.222" stroke-linejoin="round" xml:space="preserve">
 <path fill="rgb(255,255,255)" stroke="none" d="M 8000,8999 L 0,8999 0,0 15999,0 15999,8999 8000,8999 Z"/>
 <path fill="none" stroke="rgb(179,179,179)" stroke-linejoin="round" d="M 7526,8620 L 2323,8620 2323,2337 12728,2337 12728,8620 7526,8620 Z"/>
 <path fill="none" stroke="rgb(179,179,179)" stroke-linejoin="round" d="M 12728,8619 L 2323,8619"/>
 <path fill="none" stroke="rgb(179,179,179)" stroke-linejoin="round" d="M 12728,7990 L 2323,7990"/>
 <path fill="none" stroke="rgb(179,179,179)" stroke-linejoin="round" d="M 12728,7362 L 2323,7362"/>
 <path fill="none" stroke="rgb(179,179,179)" stroke-linejoin="round" d="M 12728,6733 L 2323,6733"/>
 <path fill="none" stroke="rgb(179,179,179)" stroke-linejoin="round" d="M 12728,6105 L 2323,6105"/>
 <path fill="none" stroke="rgb(179,179,179)" stroke-linejoin="round" d="M 12728,5477 L 2323,5477"/>
 <path fill="none" stroke="rgb(179,179,179)" stroke-linejoin="round" d="M 12728,4848 L 2323,4848"/>
 <path fill="none" stroke="rgb(179,179,179)" stroke-linejoin="round" d="M 12728,4221 L 2323,4221"/>
 <path fill="none" stroke="rgb(179,179,179)" stroke-linejoin="round" d="M 12728,3592 L 2323,3592"/>
 <path fill="none" stroke="rgb(179,179,179)" stroke-linejoin="round" d="M 12728,2964 L 2323,2964"/>
 <path fill="none" stroke="rgb(179,179,179)" stroke-linejoin="round" d="M 12728,2336 L 2323,2336"/>
 <path fill="none" stroke="rgb(179,179,179)" stroke-linejoin="round" d="M 2173,8619 L 2323,8619"/>
 <path fill="none" stroke="rgb(179,179,179)" stroke-linejoin="round" d="M 2173,8619 L 2323,8619"/>
 <path fill="none" stroke="rgb(179,179,179)" stroke-linejoin="round" d="M 2173,7990 L 2323,7990"/>
 <path fill="none" stroke="rgb(179,179,179)" stroke-linejoin="round" d="M 2173,7990 L 2323,7990"/>
 <path fill="none" stroke="rgb(179,179,179)" stroke-linejoin="round" d="M 2173,7362 L 2323,7362"/>
 <path fill="none" stroke="rgb(179,179,179)" stroke-linejoin="round" d="M 2173,7362 L 2323,7362"/>
 <path fill="none" stroke="rgb(179,179,179)" stroke-linejoin="round" d="M 2173,6733 L 2323,6733"/>
 <path fill="none" stroke="rgb(179,179,179)" stroke-linejoin="round" d="M 2173,6733 L 2323,6733"/>
 <path fill="none" stroke="rgb(179,179,179)" stroke-linejoin="round" d="M 2173,6105 L 2323,6105"/>
 <path fill="none" stroke="rgb(179,179,179)" stroke-linejoin="round" d="M 2173,6105 L 2323,6105"/>
 <path fill="none" stroke="rgb(179,179,179)" stroke-linejoin="round" d="M 2173,5477 L 2323,5477"/>
 <path fill="none" stroke="rgb(179,179,179)" stroke-linejoin="round" d="M 2173,5477 L 2323,5477"/>
 <path fill="none" stroke="rgb(179,179,179)" stroke-linejoin="round" d="M 2173,4848 L 2323,4848"/>
 <path fill="none" stroke="rgb(179,179,179)" stroke-linejoin="round" d="M 2173,4848 L 2323,4848"/>
 <path fill="none" stroke="rgb(179,179,179)" stroke-linejoin="round" d="M 2173,4221 L 2323,4221"/>
 <path fill="none" stroke="rgb(179,179,179)" stroke-linejoin="round" d="M 2173,4221 L 2323,4221"/>
 <path fill="none" stroke="rgb(179,179,179)" stroke-linejoin="round" d="M 2173,3592 L 2323,3592"/>
 <path fill="none" stroke="rgb(179,179,179)" stroke-linejoin="round" d="M 2173,3592 L 2323,3592"/>
 <path fill="none" stroke="rgb(179,179,179)" stroke-linejoin="round" d="M 2173,2964 L 2323,2964"/>
 <path fill="none" stroke="rgb(179,179,179)" stroke-linejoin="round" d="M 2173,2964 L 2323,2964"/>
 <path fill="none" stroke="rgb(179,179,179)" stroke-linejoin="round" d="M 2173,2336 L 2323,2336"/>
 <path fill="none" stroke="rgb(179,179,179)" stroke-linejoin="round" d="M 2173,2336 L 2323,2336"/>
 <path fill="none" stroke="rgb(179,179,179)" stroke-linejoin="round" d="M 2323,8619 L 2323,2336"/>
 <path fill="rgb(234,67,53)" fill-opacity="0.8" stroke="rgb(255,255,255)" stroke-opacity="0.8" d="M 2323,7913 L 2364,6673 2406,5828 2448,5520 2490,5203 2531,4885 2573,4595 2615,4211 2657,3763 2699,3203 2740,2971 2782,2971 2824,2970 2866,2970 2908,2970 2949,2970 2991,2970 3033,2970 3075,2970 3117,2969 3158,2969 3200,2969 3242,2969 3284,2969 3325,2969 3367,2969 3409,2969 3451,2969 3493,2969 3534,2969 3576,2969 3618,2969 3660,2969 3702,2969 3743,2969 3785,2969 3827,2969 3869,2969 3911,2969 3952,2969 3994,2969 4036,2969 4078,2969 4120,2969 4161,2969 4203,2969 4245,2969 4287,2969 4328,2969 4370,2969 4412,2969 4454,2969 4496,2969 4537,2969 4579,2969 4621,2969 4663,2969 4705,2969 4746,2969 4788,2969 4830,2969 4872,2969 4914,2969 4955,2969 4997,2969 5039,2969 5081,2969 5123,2969 5164,2969 5206,2969 5248,2969 5290,2969 5331,2969 5373,2969 5415,2969 5457,2969 5499,2969 5540,2969 5582,2969 5624,2969 5666,2969 5708,2969 5749,2969 5791,2969 5833,2969 5875,2969 5917,2969 5958,2969 6000,2969 6042,2969 6084,2969 6125,2969 6167,2969 6209,2969 6251,2969 6293,2969 6334,2969 6376,2970 6418,2970 6460,2970 6502,2970 6543,2970 6585,2970 6627,2970 6669,2970 6711,2970 6752,2970 6794,2970 6836,2970 6878,2970 6920,2970 6961,2970 7003,2970 7045,2970 7087,2970 7128,2970 7170,2970 7212,2970 7254,2970 7296,2970 7337,2970 7379,2970 7421,2970 7463,2970 7505,2970 7546,2970 7588,2970 7630,2970 7672,2970 7714,2970 7755,2970 7797,2970 7839,2970 7881,2970 7923,2970 7964,2970 8005,2970 8047,2970 8089,2970 8130,2970 8172,2970 8214,2970 8256,2970 8298,2970 8339,2970 8381,2970 8423,2970 8465,2970 8507,2970 8548,2970 8590,2970 8632,2970 8674,2970 8716,2970 8757,2970 8799,2970 8841,2970 8883,2970 8925,2970 8966,2970 9008,2970 9050,2970 9092,2970 9133,2970 9175,2970 9217,2970 9259,2970 9301,2970 9342,2970 9384,2970 9426,2970 9468,2970 9510,2970 9551,2970 9593,2970 9635,2970 9677,2970 9719,2970 9760,2970 9802,2970 9844,2970 9886,2970 9927,2970 9969,2970 10011,2970 10053,2970 10095,2970 10136,2970 10178,2970 10220,2970 10262,2970 10304,2970 10345,2970 10387,2970 10429,2970 10471,2970 10513,2970 10554,2970 10596,2970 10638,2970 10680,2970 10722,2970 10763,2970 10805,2970 10847,2970 10889,2970 10930,2970 10972,2970 11014,2970 11056,2970 11098,2970 11139,2970 11181,2970 11223,2970 11265,2970 11307,2970 11348,2970 11390,2970 11432,2970 11474,2970 11516,3093 11557,3447 11599,3447 11641,3447 11683,3447 11683,8619 2323,8619 2323,7913 Z"/>
 <path fill="rgb(52,168,83)" fill-opacity="0.8" stroke="rgb(255,255,255)" stroke-opacity="0.8" d="M 2323,7232 L 2364,7117 2406,7117 2448,7210 2490,7117 2531,7117 2573,7168 2615,7225 2657,7117 2699,7117 2740,7156 2782,7117 2824,7117 2866,7169 2908,7117 2949,7117 2991,7123 3033,7200 3075,7117 3117,7117 3158,7142 3200,7212 3242,7117 3284,7117 3325,7159 3367,7220 3409,7117 3451,7127 3493,7187 3534,7117 3576,7117 3618,7143 3660,7206 3702,7117 3743,7117 3785,7132 3827,7197 3869,7117 3911,7115 3952,7119 3994,7173 4036,7117 4078,7117 4120,7117 4161,7188 4203,7117 4245,7117 4287,7123 4328,7177 4370,7117 4412,7117 4454,7143 4496,7192 4537,7117 4579,7117 4621,7123 4663,7172 4705,7117 4746,7117 4788,7117 4830,7162 4872,7213 4914,7117 4955,7123 4997,7191 5039,7117 5081,7117 5123,7153 5164,7205 5206,7117 5248,7117 5290,7129 5331,7193 5373,7117 5415,7117 5457,7127 5499,7187 5540,7117 5582,7117 5624,7117 5666,7167 5708,7117 5749,7117 5791,7142 5833,7197 5875,7117 5917,7117 5958,7143 6000,7203 6042,7117 6084,7117 6125,7148 6167,7208 6209,7117 6251,7117 6293,7164 6334,7215 6376,7117 6418,7117 6460,7182 6502,7117 6543,7117 6585,7125 6627,7172 6669,7117 6711,7117 6752,7139 6794,7190 6836,7117 6878,7117 6920,7148 6961,7203 7003,7117 7045,7117 7087,7167 7128,7213 7170,7117 7212,7117 7254,7147 7296,7198 7337,7117 7379,7117 7421,7135 7463,7186 7505,7117 7546,7117 7588,7152 7630,7213 7672,7117 7714,7117 7755,7152 7797,7117 7839,7115 7881,7119 7923,7171 7964,7117 8005,7117 8047,7125 8089,7181 8130,7117 8172,7117 8214,7130 8256,7193 8298,7117 8339,7117 8381,7149 8423,7212 8465,7117 8507,7117 8548,7154 8590,7216 8632,7117 8674,7117 8716,7149 8757,7217 8799,7117 8841,7117 8883,7148 8925,7207 8966,7117 9008,7117 9050,7149 9092,7200 9133,7117 9175,7117 9217,7138 9259,7191 9301,7117 9342,7117 9384,7139 9426,7184 9468,7117 9510,7117 9551,7124 9593,7173 9635,7216 9677,7117 9719,7117 9760,7164 9802,7217 9844,7117 9886,7117 9927,7164 9969,7217 10011,7117 10053,7117 10095,7149 10136,7202 10178,7117 10220,7117 10262,7143 10304,7208 10345,7117 10387,7117 10429,7147 10471,7202 10513,7117 10554,7117 10596,7125 10638,7174 10680,7117 10722,7117 10763,7120 10805,7179 10847,7117 10889,7117 10930,7123 10972,7183 11014,7117 11056,7117 11098,7119 11139,7172 11181,7218 11223,7117 11265,7117 11307,7151 11348,7201 11390,7117 11432,7117 11474,7157 11516,7212 11557,7117 11599,7117 11641,7166 11683,7217 11725,7117 11766,7117 11808,7159 11850,7117 11892,7117 11933,7117 11975,7161 12017,7218 12059,7117 12101,7117 12142,7162 12184,7117 12226,7117 12268,7117 12310,7161 12351,7210 12393,7117 12435,7117 12477,7148 12519,7191 12560,7117 12602,7123 12644,7171 12686,7220 12728,7221 12728,8619 2323,8619 2323,7232 Z"/>
 <text class="TextShape"><tspan class="TextParagraph" font-family="Liberation Sans, sans-serif" font-size="353px" font-weight="400"><tspan class="TextPosition" x="1888" y="8740"><tspan fill="rgb(0,0,0)" stroke="none">0</tspan></tspan></tspan></text>
 <text class="TextShape"><tspan class="TextParagraph" font-family="Liberation Sans, sans-serif" font-size="353px" font-weight="400"><tspan class="TextPosition" x="1517" y="8111"><tspan fill="rgb(0,0,0)" stroke="none">500</tspan></tspan></tspan></text>
 <text class="TextShape"><tspan class="TextParagraph" font-family="Liberation Sans, sans-serif" font-size="353px" font-weight="400"><tspan class="TextPosition" x="1332" y="7483"><tspan fill="rgb(0,0,0)" stroke="none">1000</tspan></tspan></tspan></text>
 <text class="TextShape"><tspan class="TextParagraph" font-family="Liberation Sans, sans-serif" font-size="353px" font-weight="400"><tspan class="TextPosition" x="1332" y="6854"><tspan fill="rgb(0,0,0)" stroke="none">1500</tspan></tspan></tspan></text>
 <text class="TextShape"><tspan class="TextParagraph" font-family="Liberation Sans, sans-serif" font-size="353px" font-weight="400"><tspan class="TextPosition" x="1332" y="6226"><tspan fill="rgb(0,0,0)" stroke="none">2000</tspan></tspan></tspan></text>
 <text class="TextShape"><tspan class="TextParagraph" font-family="Liberation Sans, sans-serif" font-size="353px" font-weight="400"><tspan class="TextPosition" x="1332" y="5598"><tspan fill="rgb(0,0,0)" stroke="none">2500</tspan></tspan></tspan></text>
 <text class="TextShape"><tspan class="TextParagraph" font-family="Liberation Sans, sans-serif" font-size="353px" font-weight="400"><tspan class="TextPosition" x="1332" y="4969"><tspan fill="rgb(0,0,0)" stroke="none">3000</tspan></tspan></tspan></text>
 <text class="TextShape"><tspan class="TextParagraph" font-family="Liberation Sans, sans-serif" font-size="353px" font-weight="400"><tspan class="TextPosition" x="1332" y="4341"><tspan fill="rgb(0,0,0)" stroke="none">3500</tspan></tspan></tspan></text>
 <text class="TextShape"><tspan class="TextParagraph" font-family="Liberation Sans, sans-serif" font-size="353px" font-weight="400"><tspan class="TextPosition" x="1332" y="3712"><tspan fill="rgb(0,0,0)" stroke="none">4000</tspan></tspan></tspan></text>
 <text class="TextShape"><tspan class="TextParagraph" font-family="Liberation Sans, sans-serif" font-size="353px" font-weight="400"><tspan class="TextPosition" x="1332" y="3084"><tspan fill="rgb(0,0,0)" stroke="none">4500</tspan></tspan></tspan></text>
 <text class="TextShape"><tspan class="TextParagraph" font-family="Liberation Sans, sans-serif" font-size="353px" font-weight="400"><tspan class="TextPosition" x="1332" y="2456"><tspan fill="rgb(0,0,0)" stroke="none">5000</tspan></tspan></tspan></text>
 <text class="TextShape"><tspan class="TextParagraph" font-family="Liberation Sans, sans-serif" font-size="459px" font-weight="400"><tspan class="TextPosition" x="4229" y="851"><tspan fill="rgb(0,0,0)" stroke="none">Comparação de uso de memória RAM</tspan></tspan></tspan></text>
 <text class="TextShape"><tspan class="TextParagraph" font-family="Liberation Sans, sans-serif" font-size="388px" font-weight="400"><tspan class="TextPosition" x="6452" y="1761"><tspan fill="rgb(0,0,0)" stroke="none">Baseado em RSS</tspan></tspan></tspan></text>
 <path fill="rgb(52,168,83)" fill-opacity="0.8" stroke="rgb(255,255,255)" stroke-opacity="0.8" d="M 13270,4356 L 13164,4356 13164,4145 13375,4145 13375,4356 13270,4356 Z"/>
 <path fill="rgb(234,67,53)" fill-opacity="0.8" stroke="rgb(255,255,255)" stroke-opacity="0.8" d="M 13270,4853 L 13164,4853 13164,4642 13375,4642 13375,4853 13270,4853 Z"/>
 <text class="TextShape"><tspan class="TextParagraph" font-family="Liberation Sans, sans-serif" font-size="353px" font-weight="400"><tspan class="TextPosition" x="13475" y="4370"><tspan fill="rgb(0,0,0)" stroke="none">Otimizado</tspan></tspan></tspan></text>
 <text class="TextShape"><tspan class="TextParagraph" font-family="Liberation Sans, sans-serif" font-size="353px" font-weight="400"><tspan class="TextPosition" x="13475" y="4867"><tspan fill="rgb(0,0,0)" stroke="none">Não otimizado</tspan></tspan></tspan></text>
 <text class="TextShape" transform="rotate(-90 837 6272)"><tspan class="TextParagraph" font-family="Liberation Sans, sans-serif" font-size="318px" font-weight="400"><tspan class="TextPosition" x="837" y="6272"><tspan fill="rgb(0,0,0)" stroke="none">Megabytes</tspan></tspan></tspan></text>
</svg>