<?xml version="1.0" encoding="UTF-8"?>
<!DOCTYPE svg PUBLIC "-//W3C//DTD SVG 1.1//EN" "http://www.w3.org/Graphics/SVG/1.1/DTD/svg11.dtd">
<svg width="160mm" height="90mm" viewBox="0 0 16000 9000" version="1.1" xmlns="http://www.w3.org/2000/svg" xmlns:xlink="http://www.w3.org/1999/xlink" stroke-width="28.222" stroke-linejoin="round" xml:space="preserve">
 <path fill="rgb(255,255,255)" stroke="none" d="M 8000,8999 L 0,8999 0,0 15999,0 15999,8999 8000,8999 Z"/>
 <path fill="none" stroke="rgb(179,179,179)" stroke-linejoin="round" d="M 7433,8620 L 2138,8620 2138,1475 12728,1475 12728,8620 7433,8620 Z"/>
 <path fill="none" stroke="rgb(179,179,179)" stroke-linejoin="round" d="M 12728,8619 L 2138,8619"/>
 <path fill="none" stroke="rgb(179,179,179)" stroke-linejoin="round" d="M 12728,7904 L 2138,7904"/>
 <path fill="none" stroke="rgb(179,179,179)" stroke-linejoin="round" d="M 12728,7189 L 2138,7189"/>
 <path fill="none" stroke="rgb(179,179,179)" stroke-linejoin="round" d="M 12728,6475 L 2138,6475"/>
 <path fill="none" stroke="rgb(179,179,179)" stroke-linejoin="round" d="M 12728,5760 L 2138,5760"/>
 <path fill="none" stroke="rgb(179,179,179)" stroke-linejoin="round" d="M 12728,5046 L 2138,5046"/>
 <path fill="none" stroke="rgb(179,179,179)" stroke-linejoin="round" d="M 12728,4332 L 2138,4332"/>
 <path fill="none" stroke="rgb(179,179,179)" stroke-linejoin="round" d="M 12728,3617 L 2138,3617"/>
 <path fill="none" stroke="rgb(179,179,179)" stroke-linejoin="round" d="M 12728,2903 L 2138,2903"/>
 <path fill="none" stroke="rgb(179,179,179)" stroke-linejoin="round" d="M 12728,2188 L 2138,2188"/>
 <path fill="none" stroke="rgb(179,179,179)" stroke-linejoin="round" d="M 12728,1473 L 2138,1473"/>
 <path fill="none" stroke="rgb(179,179,179)" stroke-linejoin="round" d="M 1988,8619 L 2138,8619"/>
 <path fill="none" stroke="rgb(179,179,179)" stroke-linejoin="round" d="M 1988,8619 L 2138,8619"/>
 <path fill="none" stroke="rgb(179,179,179)" stroke-linejoin="round" d="M 1988,7904 L 2138,7904"/>
 <path fill="none" stroke="rgb(179,179,179)" stroke-linejoin="round" d="M 1988,7904 L 2138,7904"/>
 <path fill="none" stroke="rgb(179,179,179)" stroke-linejoin="round" d="M 1988,7189 L 2138,7189"/>
 <path fill="none" stroke="rgb(179,179,179)" stroke-linejoin="round" d="M 1988,7189 L 2138,7189"/>
 <path fill="none" stroke="rgb(179,179,179)" stroke-linejoin="round" d="M 1988,6475 L 2138,6475"/>
 <path fill="none" stroke="rgb(179,179,179)" stroke-linejoin="round" d="M 1988,6475 L 2138,6475"/>
 <path fill="none" stroke="rgb(179,179,179)" stroke-linejoin="round" d="M 1988,5760 L 2138,5760"/>
 <path fill="none" stroke="rgb(179,179,179)" stroke-linejoin="round" d="M 1988,5760 L 2138,5760"/>
 <path fill="none" stroke="rgb(179,179,179)" stroke-linejoin="round" d="M 1988,5046 L 2138,5046"/>
 <path fill="none" stroke="rgb(179,179,179)" stroke-linejoin="round" d="M 1988,5046 L 2138,5046"/>
 <path fill="none" stroke="rgb(179,179,179)" stroke-linejoin="round" d="M 1988,4332 L 2138,4332"/>
 <path fill="none" stroke="rgb(179,179,179)" stroke-linejoin="round" d="M 1988,4332 L 2138,4332"/>
 <path fill="none" stroke="rgb(179,179,179)" stroke-linejoin="round" d="M 1988,3617 L 2138,3617"/>
 <path fill="none" stroke="rgb(179,179,179)" stroke-linejoin="round" d="M 1988,3617 L 2138,3617"/>
 <path fill="none" stroke="rgb(179,179,179)" stroke-linejoin="round" d="M 1988,2903 L 2138,2903"/>
 <path fill="none" stroke="rgb(179,179,179)" stroke-linejoin="round" d="M 1988,2903 L 2138,2903"/>
 <path fill="none" stroke="rgb(179,179,179)" stroke-linejoin="round" d="M 1988,2188 L 2138,2188"/>
 <path fill="none" stroke="rgb(179,179,179)" stroke-linejoin="round" d="M 1988,2188 L 2138,2188"/>
 <path fill="none" stroke="rgb(179,179,179)" stroke-linejoin="round" d="M 1988,1473 L 2138,1473"/>
 <path fill="none" stroke="rgb(179,179,179)" stroke-linejoin="round" d="M 1988,1473 L 2138,1473"/>
 <path fill="none" stroke="rgb(179,179,179)" stroke-linejoin="round" d="M 2138,8619 L 2138,1473"/>
 <path fill="rgb(234,67,53)" fill-opacity="0.8" stroke="rgb(255,255,255)" stroke-opacity="0.8" d="M 2138,3825 L 2180,3038 2223,2674 2265,2424 2308,2260 2350,2138 2393,2052 2435,1981 2478,1917 2520,1874 2563,2031 2605,2538 2648,2896 2690,3239 2733,3410 2776,3567 2818,3660 2861,3753 2903,3817 2946,3903 2988,4010 3031,4132 3073,4353 3116,4502 3158,4638 3201,4767 3243,4867 3286,4974 3328,5096 3371,5188 3414,5267 3456,5353 3499,5431 3541,5510 3584,5574 3626,5646 3669,5710 3711,5767 3754,5832 3796,5867 3839,5924 3881,5974 3924,6017 3966,6067 4009,6110 4052,6167 4094,6210 4137,6246 4179,6282 4222,6317 4264,6346 4307,6375 4349,6410 4392,6439 4434,6468 4477,6496 4519,6525 4562,6553 4604,6582 4647,6603 4690,6625 4732,6646 4775,6660 4817,6682 4860,6703 4902,6725 4945,6746 4987,6768 5030,6796 5072,6811 5115,6832 5157,6846 5200,6868 5242,6882 5285,6896 5328,6911 5370,6932 5413,6939 5455,6953 5498,6968 5540,6982 5583,6996 5625,7004 5668,7018 5710,7032 5753,7046 5795,7054 5838,7068 5881,7082 5923,7089 5966,7104 6008,7118 6051,7125 6093,7132 6136,7139 6178,7154 6221,7161 6263,7168 6306,7182 6348,7189 6391,7196 6433,7211 6476,7218 6519,7232 6561,7239 6604,7246 6646,7261 6689,7268 6731,7275 6774,7282 6816,7289 6859,7289 6901,7296 6944,7304 6986,7311 7029,7318 7071,7325 7114,7332 7157,7339 7199,7347 7242,7354 7284,7361 7327,7368 7369,7368 7412,7375 7454,7382 7497,7382 7539,7389 7582,7397 7624,7404 7667,7404 7709,7411 7752,7418 7795,7425 7837,7425 7880,7432 7922,7439 7965,7439 8006,7447 8049,7454 8091,7454 8134,7461 8176,7461 8219,7468 8261,7468 8304,7475 8346,7482 8389,7482 8432,7489 8474,7489 8517,7497 8559,7497 8602,7504 8644,7511 8687,7511 8729,7511 8772,7518 8814,7518 8857,7525 8899,7525 8942,7532 8984,7532 9027,7539 9070,7539 9112,7547 9155,7547 9197,7547 9240,7554 9282,7554 9325,7561 9367,7561 9410,7568 9452,7568 9495,7575 9537,7575 9580,7575 9623,7582 9665,7582 9708,7589 9750,7589 9793,7589 9835,7597 9878,7597 9920,7597 9963,7604 10005,7604 10048,7604 10090,7611 10133,7611 10175,7611 10218,7618 10261,7618 10303,7618 10346,7625 10388,7625 10431,7625 10473,7625 10516,7632 10558,7632 10601,7632 10643,7639 10686,7639 10728,7647 10771,7647 10813,7647 10856,7654 10899,7654 10941,7654 10984,7654 11026,7661 11069,7661 11111,7661 11154,7661 11196,7668 11239,7668 11281,7668 11324,7668 11366,7675 11409,7675 11451,7675 11494,7675 11537,7675 11579,7675 11622,7682 11664,7690 11707,8619 11749,8619 11792,8619 11834,8619 11877,8619 11919,8619 11962,8619 12004,8619 12047,8619 12089,8619 12132,8619 12175,8619 12217,8619 12260,8619 12302,8619 12345,8619 12387,8619 12430,8619 12472,8619 12515,8619 12557,8619 12600,8619 12642,8619 12685,8619 12728,8619 12728,8619 2138,8619 2138,3825 Z"/>
 <path fill="rgb(52,168,83)" fill-opacity="0.698" stroke="rgb(255,255,255)" stroke-opacity="0.698" d="M 2138,2081 L 2180,2217 2223,3624 2265,4403 2308,4246 2350,3967 2393,3967 2435,3989 2478,3875 2520,3732 2563,3724 2605,3817 2648,3753 2690,3817 2733,3832 2776,3760 2818,3724 2861,3789 2903,3846 2946,3796 2988,3789 3031,3832 3073,3810 3116,3760 3158,3782 3201,3796 3243,3760 3286,3724 3328,3746 3371,3746 3414,3717 3456,3717 3499,3739 3541,3724 3584,3696 3626,3682 3669,3703 3711,3696 3754,3674 3796,3653 3839,3660 3881,3667 3924,3646 3966,3624 4009,3653 4052,3653 4094,3667 4137,3653 4179,3660 4222,3660 4264,3639 4307,3639 4349,3639 4392,3639 4434,3624 4477,3610 4519,3617 4562,3624 4604,3610 4647,3589 4690,3596 4732,3596 4775,3589 4817,3582 4860,3596 4902,3596 4945,3582 4987,3582 5030,3589 5072,3582 5115,3567 5157,3582 5200,3589 5242,3589 5285,3574 5328,3567 5370,3574 5413,3574 5455,3567 5498,3553 5540,3560 5583,3567 5625,3553 5668,3553 5710,3553 5753,3553 5795,3546 5838,3546 5881,3553 5923,3553 5966,3539 6008,3546 6051,3553 6093,3546 6136,3532 6178,3539 6221,3546 6263,3539 6306,3532 6348,3546 6391,3546 6433,3546 6476,3546 6519,3546 6561,3553 6604,3546 6646,3546 6689,3546 6731,3546 6774,3539 6816,3539 6859,3546 6901,3546 6944,3532 6986,3539 7029,3539 7071,3539 7114,3524 7157,3532 7199,3532 7242,3532 7284,3524 7327,3524 7369,3524 7412,3524 7454,3517 7497,3524 7539,3524 7582,3524 7624,3517 7667,3532 7709,3539 7752,3532 7795,3524 7837,3524 7880,3532 7922,3524 7965,3517 8006,3524 8049,3524 8091,3517 8134,3517 8176,3524 8219,3517 8261,3510 8304,3517 8346,3524 8389,3517 8432,3510 8474,3510 8517,3517 8559,3510 8602,3503 8644,3503 8687,3510 8729,3510 8772,3503 8814,3503 8857,3503 8899,3517 8942,3510 8984,3510 9027,3510 9070,3510 9112,3503 9155,3503 9197,3503 9240,3503 9282,3496 9325,3496 9367,3496 9410,3496 9452,3496 9495,3489 9537,3496 9580,3496 9623,3496 9665,3482 9708,3489 9750,3489 9793,3489 9835,3482 9878,3482 9920,3489 9963,3482 10005,3474 10048,3482 10090,3482 10133,3489 10175,3489 10218,3482 10261,3489 10303,3489 10346,3482 10388,3482 10431,3482 10473,3482 10516,3482 10558,3482 10601,3482 10643,3482 10686,3474 10728,3474 10771,3474 10813,3482 10856,3474 10899,3474 10941,3474 10984,3474 11026,3474 11069,3467 11111,3474 11154,3474 11196,3474 11239,3467 11281,3467 11324,3467 11366,3467 11409,3467 11451,3474 11494,3474 11537,3474 11579,3467 11622,3474 11664,3474 11707,3474 11749,3467 11792,3467 11834,3474 11877,3474 11919,3467 11962,3474 12004,3474 12047,3474 12089,3467 12132,3467 12175,3474 12217,3467 12260,3467 12302,3467 12345,3467 12387,3467 12430,3467 12472,3467 12515,3467 12557,3467 12600,3467 12642,3474 12685,3482 12728,3489 12728,8619 2138,8619 2138,2081 Z"/>
 <text class="TextShape"><tspan class="TextParagraph" font-family="Liberation Sans, sans-serif" font-size="353px" font-weight="400"><tspan class="TextPosition" x="1703" y="8740"><tspan fill="rgb(0,0,0)" stroke="none">0</tspan></tspan></tspan></text>
 <text class="TextShape"><tspan class="TextParagraph" font-family="Liberation Sans, sans-serif" font-size="353px" font-weight="400"><tspan class="TextPosition" x="1518" y="8025"><tspan fill="rgb(0,0,0)" stroke="none">10</tspan></tspan></tspan></text>
 <text class="TextShape"><tspan class="TextParagraph" font-family="Liberation Sans, sans-serif" font-size="353px" font-weight="400"><tspan class="TextPosition" x="1518" y="7310"><tspan fill="rgb(0,0,0)" stroke="none">20</tspan></tspan></tspan></text>
 <text class="TextShape"><tspan class="TextParagraph" font-family="Liberation Sans, sans-serif" font-size="353px" font-weight="400"><tspan class="TextPosition" x="1518" y="6596"><tspan fill="rgb(0,0,0)" stroke="none">30</tspan></tspan></tspan></text>
 <text class="TextShape"><tspan class="TextParagraph" font-family="Liberation Sans, sans-serif" font-size="353px" font-weight="400"><tspan class="TextPosition" x="1518" y="5881"><tspan fill="rgb(0,0,0)" stroke="none">40</tspan></tspan></tspan></text>
 <text class="TextShape"><tspan class="TextParagraph" font-family="Liberation Sans, sans-serif" font-size="353px" font-weight="400"><tspan class="TextPosition" x="1518" y="5167"><tspan fill="rgb(0,0,0)" stroke="none">50</tspan></tspan></tspan></text>
 <text class="TextShape"><tspan class="TextParagraph" font-family="Liberation Sans, sans-serif" font-size="353px" font-weight="400"><tspan class="TextPosition" x="1518" y="4452"><tspan fill="rgb(0,0,0)" stroke="none">60</tspan></tspan></tspan></text>
 <text class="TextShape"><tspan class="TextParagraph" font-family="Liberation Sans, sans-serif" font-size="353px" font-weight="400"><tspan class="TextPosition" x="1518" y="3737"><tspan fill="rgb(0,0,0)" stroke="none">70</tspan></tspan></tspan></text>
 <text class="TextShape"><tspan class="TextParagraph" font-family="Liberation Sans, sans-serif" font-size="353px" font-weight="400"><tspan class="TextPosition" x="1518" y="3023"><tspan fill="rgb(0,0,0)" stroke="none">80</tspan></tspan></tspan></text>
 <text class="TextShape"><tspan class="TextParagraph" font-family="Liberation Sans, sans-serif" font-size="353px" font-weight="400"><tspan class="TextPosition" x="1518" y="2308"><tspan fill="rgb(0,0,0)" stroke="none">90</tspan></tspan></tspan></text>
 <text class="TextShape"><tspan class="TextParagraph" font-family="Liberation Sans, sans-serif" font-size="353px" font-weight="400"><tspan class="TextPosition" x="1332" y="1593"><tspan fill="rgb(0,0,0)" stroke="none">100</tspan></tspan></tspan></text>
 <text class="TextShape"><tspan class="TextParagraph" font-family="Liberation Sans, sans-serif" font-size="459px" font-weight="400"><tspan class="TextPosition" x="5182" y="851"><tspan fill="rgb(0,0,0)" stroke="none">Comparação de uso de CPU</tspan></tspan></tspan></text>
 <path fill="rgb(52,168,83)" fill-opacity="0.698" stroke="rgb(255,255,255)" stroke-opacity="0.698" d="M 13270,4356 L 13164,4356 13164,4145 13375,4145 13375,4356 13270,4356 Z"/>
 <path fill="rgb(234,67,53)" fill-opacity="0.8" stroke="rgb(255,255,255)" stroke-opacity="0.8" d="M 13270,4853 L 13164,4853 13164,4642 13375,4642 13375,4853 13270,4853 Z"/>
 <text class="TextShape"><tspan class="TextParagraph" font-family="Liberation Sans, sans-serif" font-size="353px" font-weight="400"><tspan class="TextPosition" x="13475" y="4370"><tspan fill="rgb(0,0,0)" stroke="none">Otimizado</tspan></tspan></tspan></text>
 <text class="TextShape"><tspan class="TextParagraph" font-family="Liberation Sans, sans-serif" font-size="353px" font-weight="400"><tspan class="TextPosition" x="13475" y="4867"><tspan fill="rgb(0,0,0)" stroke="none">Não otimizado</tspan></tspan></tspan></text>
 <text class="TextShape" transform="rotate(-90 837 7414)"><tspan class="TextParagraph" font-family="Liberation Sans, sans-serif" font-size="318px" font-weight="400"><tspan class="TextPosition" x="837" y="7414"><tspan fill="rgb(0,0,0)" stroke="none">Percentual de uso pelo processo</tspan></tspan></tspan></text>
</svg>